<svg id="undraw_personal_opinions_g3kr" xmlns="http://www.w3.org/2000/svg" width="383.555" height="272.67" viewBox="0 0 383.555 272.67">
  <path id="Path_590" data-name="Path 590" d="M257.5,708.084l-.982-3.872a50.26,50.26,0,0,0-5.334-1.914l-.124,1.8-.5-1.982c-2.248-.642-3.777-.925-3.777-.925a48.18,48.18,0,0,0,6.4,13.859l5.048.887-3.922.565a20.34,20.34,0,0,0,1.754,1.859c6.3,5.85,13.322,8.534,15.679,5.995s-.842-9.34-7.144-15.189a26.782,26.782,0,0,0-6.865-4.414Z" transform="translate(-207.737 -456.241)" fill="#e6e6e6"/>
  <path id="Path_591" data-name="Path 591" d="M283.446,692.39l1.161-3.822a50.28,50.28,0,0,0-3.577-4.4l-1.036,1.476.594-1.957c-1.592-1.711-2.755-2.744-2.755-2.744a48.18,48.18,0,0,0-1.687,15.171l3.863,3.368-3.649-1.543a20.341,20.341,0,0,0,.541,2.5c2.371,8.265,6.993,14.191,10.323,13.236s4.107-8.43,1.736-16.7a26.778,26.778,0,0,0-3.595-7.327Z" transform="translate(-224.346 -444.751)" fill="#e6e6e6"/>
  <path id="Path_592" data-name="Path 592" d="M442.232,706.453l-.923-3.639a47.27,47.27,0,0,0-5.013-1.8l-.117,1.691-.472-1.863c-2.113-.6-3.55-.869-3.55-.869A45.285,45.285,0,0,0,438.171,713l4.745.833-3.686.531a19.125,19.125,0,0,0,1.649,1.747c5.923,5.5,12.521,8.021,14.736,5.634s-.791-8.778-6.714-14.276a25.168,25.168,0,0,0-6.452-4.149Z" transform="translate(-312.956 -455.55)" fill="#e6e6e6"/>
  <path id="Path_593" data-name="Path 593" d="M466.617,691.7l1.091-3.592a47.266,47.266,0,0,0-3.362-4.131l-.974,1.388.559-1.839c-1.5-1.608-2.59-2.579-2.59-2.579a45.284,45.284,0,0,0-1.586,14.259l3.631,3.166-3.43-1.45a19.118,19.118,0,0,0,.508,2.348c2.229,7.768,6.573,13.338,9.7,12.44s3.86-7.923,1.632-15.692a25.169,25.169,0,0,0-3.379-6.887Z" transform="translate(-328.566 -444.751)" fill="#e6e6e6"/>
  <path id="Path_594" data-name="Path 594" d="M807.169,715.2l-.465-1.834a23.829,23.829,0,0,0-2.526-.906l-.059.852-.238-.939c-1.065-.3-1.789-.438-1.789-.438a22.817,22.817,0,0,0,3.03,6.564l2.391.42-1.857.268a9.638,9.638,0,0,0,.831.88c2.985,2.771,6.31,4.042,7.426,2.839s-.4-4.423-3.384-7.194a12.683,12.683,0,0,0-3.251-2.091Z" transform="translate(-522.93 -462.342)" fill="#e6e6e6"/>
  <path id="Path_595" data-name="Path 595" d="M819.485,707.772l.55-1.81a23.82,23.82,0,0,0-1.694-2.082l-.491.7.282-.927c-.754-.81-1.3-1.3-1.3-1.3a22.819,22.819,0,0,0-.8,7.185l1.83,1.6-1.729-.731a9.64,9.64,0,0,0,.256,1.183c1.123,3.915,3.312,6.721,4.889,6.269s1.945-3.993.822-7.907a12.682,12.682,0,0,0-1.7-3.47Z" transform="translate(-530.824 -456.9)" fill="#e6e6e6"/>
  <path id="Path_596" data-name="Path 596" d="M897.723,706.527l-.611-2.412a31.321,31.321,0,0,0-3.323-1.192l-.077,1.121-.313-1.235c-1.4-.4-2.353-.576-2.353-.576a30.014,30.014,0,0,0,3.986,8.634l3.145.552-2.443.352a12.667,12.667,0,0,0,1.093,1.158c3.926,3.644,8.3,5.316,9.767,3.734s-.524-5.818-4.45-9.463a16.683,16.683,0,0,0-4.277-2.75Z" transform="translate(-573.419 -456.832)" fill="#e6e6e6"/>
  <path id="Path_597" data-name="Path 597" d="M913.885,696.75l.723-2.381a31.3,31.3,0,0,0-2.228-2.738l-.645.92.37-1.219c-.992-1.066-1.716-1.709-1.716-1.709a30.015,30.015,0,0,0-1.051,9.451l2.406,2.1-2.273-.961a12.66,12.66,0,0,0,.337,1.556c1.477,5.149,4.356,8.841,6.431,8.246s2.559-5.252,1.081-10.4a16.679,16.679,0,0,0-2.24-4.565Z" transform="translate(-583.766 -449.675)" fill="#e6e6e6"/>
  <path id="Path_598" data-name="Path 598" d="M717.268,672.137l2.778-3.221a53.547,53.547,0,0,0-1.588-5.822l-1.645.991,1.422-1.649c-.813-2.353-1.5-3.86-1.5-3.86a51.307,51.307,0,0,0-8.184,14.046l2.309,4.945-2.888-3.076a21.664,21.664,0,0,0-.551,2.666c-1.255,9.071.691,16.834,4.345,17.339s7.634-6.438,8.888-15.509a28.515,28.515,0,0,0-.342-8.685Z" transform="translate(-468.979 -432.052)" fill="#e6e6e6"/>
  <path id="Path_599" data-name="Path 599" d="M729.4,687.235l4.043-1.321a53.559,53.559,0,0,0,1.65-5.8l-1.921,0,2.07-.676c.52-2.434.711-4.079.711-4.079a51.308,51.308,0,0,0-14.266,7.794l-.579,5.427-.883-4.126a21.673,21.673,0,0,0-1.849,2c-5.763,7.117-8.11,14.768-5.243,17.089s9.863-1.565,15.625-8.682a28.516,28.516,0,0,0,4.2-7.611Z" transform="translate(-471.745 -441.574)" fill="#e6e6e6"/>
  <path id="Path_600" data-name="Path 600" d="M833.035,711.617l1.236-1.432a23.813,23.813,0,0,0-.706-2.589l-.732.441.633-.733c-.361-1.046-.667-1.717-.667-1.717a22.82,22.82,0,0,0-3.64,6.247l1.027,2.2-1.285-1.368a9.618,9.618,0,0,0-.245,1.186c-.558,4.034.307,7.487,1.933,7.711s3.4-2.863,3.953-6.9a12.683,12.683,0,0,0-.152-3.862Z" transform="translate(-537.911 -458.735)" fill="#e6e6e6"/>
  <path id="Path_601" data-name="Path 601" d="M838.433,718.332l1.8-.588a23.788,23.788,0,0,0,.734-2.582h-.854l.921-.3c.231-1.083.316-1.814.316-1.814A22.819,22.819,0,0,0,835,716.513l-.258,2.414-.393-1.835a9.62,9.62,0,0,0-.822.888c-2.563,3.165-3.607,6.568-2.332,7.6s4.386-.7,6.949-3.861a12.684,12.684,0,0,0,1.867-3.385Z" transform="translate(-539.141 -462.97)" fill="#e6e6e6"/>
  <path id="Path_602" data-name="Path 602" d="M157.017,747.134s302.032-31.133,383.324,0Z" transform="translate(-156.786 -474.464)" fill="#e6e6e6"/>
  <path id="Path_603" data-name="Path 603" d="M905.022,217.418c-.592-45.843-23.979-82.716-52.746-82.716-17.288,0-32.633,13.316-42.256,33.893l11.314,28.387-15.636-17.5a126.332,126.332,0,0,0-6.182,39.712,129.469,129.469,0,0,0,3.988,32.27l30.321-4.888L806.69,261.753c8.84,24.236,25,40.789,43.622,41.881l-3.589,97.645,11.107.4-2.374-98.14c26.521-2.526,47.765-36.421,49.466-78.84L886.6,214.448Z" transform="translate(-521.467 -134.702)" fill="#e6e6e6"/>
  <path id="Path_604" data-name="Path 604" d="M442.83,149.48l14.6,2.567,4.865-24.386-11.757-5.134Z" transform="translate(-251.35 -69.546)" fill="#2f2e41"/>
  <path id="Path_605" data-name="Path 605" d="M483.418,158.5l14.6,2.567,4.865-24.386-11.757-5.134Z" transform="translate(-274.387 -74.666)" fill="#2f2e41"/>
  <path id="Path_606" data-name="Path 606" d="M523.631,556.815v10.14h7.41l-.78-9.75Z" transform="translate(-297.212 -316.047)" fill="#a0616a"/>
  <path id="Path_607" data-name="Path 607" d="M424.611,556.815v10.14H417.2l.78-9.75Z" transform="translate(-236.803 -316.047)" fill="#a0616a"/>
  <path id="Path_608" data-name="Path 608" d="M584.336,448.039l-5.925,36.113a215.683,215.683,0,0,0-2.727,27.791l-1.1,33.206,7.8-.78,5.85-37.83s15.21-56.16,20.67-44.85,8.19,47.19,8.19,47.19l2.34,35.1h8.58l.78-46.02s4.68-64.351-7.02-69.811Z" transform="translate(-393.797 -301.262)" fill="#2f2e41"/>
  <path id="Path_609" data-name="Path 609" d="M681.257,707.442s-8.58-5.85-9.36-1.17l-3.12,11.31s-4.68,8.97,5.46,8.97,7.02-6.63,7.02-6.63Z" transform="translate(-446.648 -458.094)" fill="#2f2e41"/>
  <path id="Path_610" data-name="Path 610" d="M571.286,707.442s8.58-5.85,9.36-1.17l3.12,11.31s4.68,8.97-5.46,8.97-7.02-6.63-7.02-6.63Z" transform="translate(-391.667 -458.094)" fill="#2f2e41"/>
  <circle id="Ellipse_116" data-name="Ellipse 116" cx="11.31" cy="11.31" r="11.31" transform="translate(200.874 52.201)" fill="#a0616a"/>
  <path id="Path_611" data-name="Path 611" d="M624.363,292.856s1.17,10.92-4.68,13.26l9.75,11.7,12.87-8.97s-9.36-1.95-7.8-7.41,1.56-6.24,1.56-6.24Z" transform="translate(-419.395 -224.47)" fill="#a0616a"/>
  <path id="Path_612" data-name="Path 612" d="M605.435,320.366s8.19,6.24,9.75,5.85,4.68-4.68,4.68-4.68,11.505.2,16.185,3.315-4.485,22.425-4.485,22.425,2.535,8.775-.585,11.115.78,8.19.78,8.19-7.8,14.43-28.47,19.89c0,0-12.87,5.07-12.48,2.34s4.29-33.93,4.29-33.93v-32.37Z" transform="translate(-403.001 -240.085)" fill="#575a89"/>
  <path id="Path_613" data-name="Path 613" d="M608.131,246.409s-5.906,1.969-6.206,9.744a13.791,13.791,0,0,0,.41,3.692c.333,1.409.546,4.442-2.031,8.405a83.2,83.2,0,0,0-4.722,8.123l-.018.037,6.487.811,1.379-10.752a53.543,53.543,0,0,1,4.252-15.095l.045-.1s2.838,5.271,8.514,5.271l-2.027-2.027s8.919,3.649,12.163,3.649c0,0,2.433,1.622,0,4.054s-7.3,8.109-4.46,12.568.405,5.676.405,5.676l4.46-2.433,2.027-1.216v1.622l10.541-1.216s2.838-.405-3.243-7.3c0,0-1.606-2.676-.9-4.985a11.645,11.645,0,0,0,.443-5.445C634.282,251.893,628.937,236.782,608.131,246.409Z" transform="translate(-405.704 -196.342)" fill="#2f2e41"/>
  <path id="Path_614" data-name="Path 614" d="M365.556,341.7H471.7v58.833H458.219v16.179l-14.525-16.179H365.556Z" transform="translate(-207.489 -193.948)" fill="#0080ff"/>
  <rect id="Rectangle_91" data-name="Rectangle 91" width="71.336" height="3.187" transform="translate(246.807 168.221) rotate(180)" fill="#fff"/>
  <rect id="Rectangle_92" data-name="Rectangle 92" width="71.336" height="3.187" transform="translate(246.807 178.762) rotate(180)" fill="#fff"/>
  <rect id="Rectangle_93" data-name="Rectangle 93" width="71.336" height="3.187" transform="translate(246.807 189.303) rotate(180)" fill="#fff"/>
  <path id="Path_615" data-name="Path 615" d="M581.8,396.97l1.17,8.58,8.58,23.79s1.95,18.33,6.63,15.99-.78-18.72-.78-18.72l-7.02-22.23.39-7.8Z" transform="translate(-397.893 -283.344)" fill="#a0616a"/>
  <path id="Path_616" data-name="Path 616" d="M592.112,325.625l-3.518-1.147-1.552.757s-5.46.39-6.24,4.29-3.51,28.08-3.51,28.08l14.43.78Z" transform="translate(-395.333 -242.419)" fill="#575a89"/>
  <path id="Path_617" data-name="Path 617" d="M678.222,396.97l-1.17,8.58-8.58,23.79s-1.95,18.33-6.63,15.99.78-18.72.78-18.72l7.02-22.23-.39-7.8Z" transform="translate(-442.248 -283.344)" fill="#a0616a"/>
  <path id="Path_618" data-name="Path 618" d="M672.447,326.052l1.876-.612a4.268,4.268,0,0,1,3.194.222h0s5.46.39,6.24,4.29,3.51,28.08,3.51,28.08l-14.43.78Z" transform="translate(-449.343 -242.845)" fill="#575a89"/>
  <path id="Path_619" data-name="Path 619" d="M143.946,17.333H0V97.119H18.284V119.06l19.7-21.941H143.946Z" transform="translate(0 -9.838)" fill="#0080ff"/>
  <rect id="Rectangle_94" data-name="Rectangle 94" width="96.74" height="4.322" transform="translate(23.603 30.932)" fill="#fff"/>
  <rect id="Rectangle_95" data-name="Rectangle 95" width="96.74" height="4.322" transform="translate(23.603 45.227)" fill="#fff"/>
  <rect id="Rectangle_96" data-name="Rectangle 96" width="96.74" height="4.322" transform="translate(23.603 59.522)" fill="#fff"/>
  <circle id="Ellipse_117" data-name="Ellipse 117" cx="3.892" cy="3.892" r="3.892" transform="translate(11.69 111.743)" fill="#e6e6e6"/>
</svg>
