<svg xmlns="http://www.w3.org/2000/svg" xmlns:xlink="http://www.w3.org/1999/xlink" width="389.386" height="304.668" viewBox="0 0 389.386 304.668">
  <defs>
    <linearGradient id="linear-gradient" x1="0.5" y1="1" x2="0.5" gradientUnits="objectBoundingBox">
      <stop offset="0" stop-color="gray" stop-opacity="0.251"/>
      <stop offset="0.54" stop-color="gray" stop-opacity="0.122"/>
      <stop offset="1" stop-color="gray" stop-opacity="0.102"/>
    </linearGradient>
  </defs>
  <g id="undraw_baby_ja7a_1_" data-name="undraw_baby_ja7a (1)" transform="translate(0 0.013)">
    <path id="Path_248" data-name="Path 248" d="M232.483,40.373c10.574-9.433,27.178-11.342,42.315-10.618,47.5,2.363,90.384,25.294,127.476,51.236,13.43,9.389,26.649,19.51,35.364,32.443,17.756,26.327,12.48,62.8-12.19,84.484-8.4,7.378-18.572,13.045-29.019,18.05-18.575,8.914-38.618,16.071-59.7,18.119-15.031,1.45-30.251.272-45.2-1.754-41.756-5.664-82.745-18.188-117.1-39.611-15.068-9.4-29.276-21.079-35.48-36.281s-2.236-34.465,13.151-43.463c6.363-3.722,13.973-5.4,21.42-6.983,10.965-2.323,22.1-4.613,32-9.335,10.223-4.878,22.322-14.31,20.293-25.109C223.641,59.967,221.9,49.8,232.483,40.373Z" transform="translate(-109.54 -29.63)" fill="#0080ff" opacity="0.1"/>
    <ellipse id="Ellipse_54" data-name="Ellipse 54" cx="48.247" cy="15.104" rx="48.247" ry="15.104" transform="translate(118.783 270.766)" fill="#0080ff" opacity="0.1"/>
    <path id="Path_249" data-name="Path 249" d="M733.95,359.59l1.75,93.029,3.721.438-1.4-93.837Z" transform="translate(-467.985 -229.056)" fill="#f5c5cc"/>
    <path id="Path_250" data-name="Path 250" d="M739.87,355.45l2,96.823,1.33-1.62-1.4-93.837Z" transform="translate(-471.76 -226.652)" fill="none"/>
    <path id="Path_251" data-name="Path 251" d="M709.12,354.76l1.75,93.029,3.721.438-1.4-93.837Z" transform="translate(-452.153 -225.976)" fill="#f5c5cc"/>
    <path id="Path_252" data-name="Path 252" d="M715.04,350.62l1.993,96.823,1.334-1.62-1.4-93.837Z" transform="translate(-455.927 -223.572)" fill="none"/>
    <path id="Path_253" data-name="Path 253" d="M715.19,338.483l.181,101.465,3.8-.362-1.45-103.1Z" transform="translate(-456.023 -214.563)" fill="#cc929b"/>
    <path id="Path_254" data-name="Path 254" d="M425.56,294.641l1.605,84.328,3.722.391-1.254-85.06Z" transform="translate(-271.348 -187.661)" fill="#f5c5cc"/>
    <path id="Path_255" data-name="Path 255" d="M431.49,290.89l1.841,87.767,1.337-1.471-1.254-85.06Z" transform="translate(-275.129 -185.487)" fill="#cc929b"/>
    <path id="Path_256" data-name="Path 256" d="M447.41,300.531l1.605,84.325,3.722.391-1.254-85.057Z" transform="translate(-285.28 -191.417)" fill="#f5c5cc"/>
    <path id="Path_257" data-name="Path 257" d="M453.34,296.77l1.844,87.767,1.334-1.471-1.254-85.057Z" transform="translate(-289.061 -189.236)" fill="#cc929b"/>
    <path id="Path_258" data-name="Path 258" d="M468.77,306.917l1.605,84.328,3.722.391-1.254-85.057Z" transform="translate(-298.899 -195.491)" fill="#f5c5cc"/>
    <path id="Path_259" data-name="Path 259" d="M474.7,303.17l1.844,87.764,1.334-1.471-1.254-85.057Z" transform="translate(-302.681 -193.317)" fill="#cc929b"/>
    <path id="Path_260" data-name="Path 260" d="M489.55,308.2l1.652,87.289,3.722.406-1.3-88.043Z" transform="translate(-312.149 -196.301)" fill="#f5c5cc"/>
    <path id="Path_261" data-name="Path 261" d="M495.47,304.31l1.9,90.847,1.334-1.522-1.3-88.043Z" transform="translate(-315.924 -194.044)" fill="#cc929b"/>
    <path id="Path_262" data-name="Path 262" d="M512.08,310.072l1.656,87.285,3.722.406-1.3-88.043Z" transform="translate(-326.515 -197.493)" fill="#f5c5cc"/>
    <path id="Path_263" data-name="Path 263" d="M518.01,306.19l1.9,90.844,1.334-1.522-1.3-88.043Z" transform="translate(-330.296 -195.243)" fill="#cc929b"/>
    <path id="Path_264" data-name="Path 264" d="M534.22,317.948l1.652,87.289,3.722.406-1.3-88.043Z" transform="translate(-340.632 -202.518)" fill="#f5c5cc"/>
    <path id="Path_265" data-name="Path 265" d="M540.14,314.06l1.9,90.847,1.333-1.522-1.3-88.043Z" transform="translate(-344.407 -200.261)" fill="#cc929b"/>
    <path id="Path_266" data-name="Path 266" d="M559.56,323.129l1.7,89.724,3.722.417-1.344-90.5Z" transform="translate(-356.789 -205.814)" fill="#f5c5cc"/>
    <path id="Path_267" data-name="Path 267" d="M565.48,319.14l1.939,93.38,1.334-1.565-1.344-90.5Z" transform="translate(-360.564 -203.5)" fill="#cc929b"/>
    <path id="Path_268" data-name="Path 268" d="M581.61,325.759l1.692,89.724,3.725.417-1.348-90.5Z" transform="translate(-370.849 -207.491)" fill="#f5c5cc"/>
    <path id="Path_269" data-name="Path 269" d="M587.53,321.76l1.939,93.384,1.333-1.565-1.348-90.5Z" transform="translate(-374.624 -205.17)" fill="#cc929b"/>
    <path id="Path_270" data-name="Path 270" d="M604.97,332.365l1.7,89.724,3.722.42-1.344-90.5Z" transform="translate(-385.744 -211.706)" fill="#f5c5cc"/>
    <path id="Path_271" data-name="Path 271" d="M610.9,328.37l1.935,93.384,1.334-1.565-1.344-90.5Z" transform="translate(-389.525 -209.385)" fill="#cc929b"/>
    <path id="Path_272" data-name="Path 272" d="M405.231,283.621l-.181-5.341,1.884-1.029,135.144,27.718.25,6.78Z" transform="translate(-258.27 -176.79)" fill="#f5c5cc"/>
    <path id="Path_273" data-name="Path 273" d="M407.425,277.25l135.641,27.7-.138,2.54L405.82,278.123" transform="translate(-258.761 -176.79)" fill="#cc929b"/>
    <path id="Path_274" data-name="Path 274" d="M412.3,406.027l-3.8,1.384h-3.624L404.69,264.44l1.993-2.769,1.924-.565,2.424-.366Z" transform="translate(-258.04 -166.263)" fill="#f5c5cc"/>
    <path id="Path_275" data-name="Path 275" d="M418.581,406.027l-3.8,1.384-.235-142.689.348-3.617,2.424-.366Z" transform="translate(-264.321 -166.263)" fill="#cc929b"/>
    <path id="Path_276" data-name="Path 276" d="M630.35,339.689l1.7,89.72,3.721.42-1.344-90.5Z" transform="translate(-401.927 -216.374)" fill="#f5c5cc"/>
    <path id="Path_277" data-name="Path 277" d="M636.27,335.69l1.939,93.384,1.334-1.565-1.344-90.5Z" transform="translate(-405.702 -214.053)" fill="#cc929b"/>
    <path id="Path_278" data-name="Path 278" d="M655.92,343.592l1.729,91.641,3.722.428L659.99,343.23Z" transform="translate(-418.231 -218.86)" fill="#f5c5cc"/>
    <path id="Path_279" data-name="Path 279" d="M661.84,339.51l1.971,95.377,1.333-1.6-1.381-92.431Z" transform="translate(-422.006 -216.488)" fill="none"/>
    <path id="Path_280" data-name="Path 280" d="M682.25,348.21,684,441.239l3.722.438-1.4-93.837Z" transform="translate(-435.02 -221.8)" fill="#f5c5cc"/>
    <path id="Path_281" data-name="Path 281" d="M688.17,344.07l2,96.827,1.33-1.623-1.4-93.837Z" transform="translate(-438.794 -219.396)" fill="#cc929b"/>
    <path id="Path_282" data-name="Path 282" d="M273.176,404.586l-3.8.362-.178-100.084,0-1.381,2.537-1.993.04,2.776Z" transform="translate(-171.642 -192.246)" fill="#f5c5cc"/>
    <path id="Path_283" data-name="Path 283" d="M310.176,389.086l-3.8.362L306.194,291l0-3.015,2.537-1.993.058,4.044Z" transform="translate(-195.234 -182.363)" fill="#f5c5cc"/>
    <path id="Path_284" data-name="Path 284" d="M371.176,364.086l-3.8.362-.174-97.207-.007-4.258,2.537-1.993.08,5.646Z" transform="translate(-234.13 -166.422)" fill="#f5c5cc"/>
    <path id="Path_285" data-name="Path 285" d="M397.676,354.086l-3.8.362-.17-94.833-.011-6.632,2.537-1.993.13,9.212Z" transform="translate(-251.027 -160.046)" fill="#f5c5cc"/>
    <path id="Path_286" data-name="Path 286" d="M291.676,401.586l-3.8.362-.181-100.74v-.725l2.537-1.993.025,1.91Z" transform="translate(-183.438 -190.333)" fill="#f5c5cc"/>
    <path id="Path_287" data-name="Path 287" d="M345.676,376.586l-3.8.362-.177-98.841,0-2.624,2.537-1.993.051,3.718Z" transform="translate(-217.87 -174.392)" fill="#f5c5cc"/>
    <path id="Path_288" data-name="Path 288" d="M328.176,381.586l-3.8.362L324.2,283.7l-.007-3.222,2.537-1.993.058,4.2Z" transform="translate(-206.712 -177.58)" fill="#f5c5cc"/>
    <path id="Path_289" data-name="Path 289" d="M319.784,569.48l-.906,1.9a15.873,15.873,0,0,0-2.084,8.969c.272,5.436-3.794,19.84-3.794,19.84s3.714,1.721,6.523,1.54,8.878,2.808,8.878,2.808l12.582,3.9,25.457,5.979s14.948,8.335,19.025,8.335,20.293,5.526,20.293,5.526,21.924,4.8,23.645,6.613,8.98,4.251,9.7,4.349,11.777,1.178,11.777,1.178,12.864,2.99,14.676-.181a16.334,16.334,0,0,0,2.084-5.8s5.707,1.268,7.247-.634,1.631-5.979,3.443-5.8,9.24,2.446,10.056,1.631,5.164-10.418,8.244-8.969,8.425,3.714,8.425,3.714l-3.08-31.346-1.359-8.606s-49.374,20.112-51.095,20.112S319.784,569.48,319.784,569.48Z" transform="translate(-222.308 -373.86)" fill="#0080ff"/>
    <path id="Path_290" data-name="Path 290" d="M502.534,440.023l-.272,44.21L450.976,503.9,321.064,469.383s-8.788-12.411-.634-24.007c0,0-10.509-14.495,2.537-23.917l.323-.076L372.612,409.5l21.935,4.008,96.917,17.727S500.983,434.768,502.534,440.023Z" transform="translate(-224.495 -271.853)" fill="#0080ff"/>
    <path id="Path_291" data-name="Path 291" d="M404.885,417.737c-2.446,1.268-20.2,5.889-23.736,8.7s-27.993,4.99-27.993,4.99l-2.718.544s.181-1.812-10.6-7.066a13.746,13.746,0,0,1-4.479-3.519L384.683,409.5l21.935,4.008C406.646,415.244,406.349,416.976,404.885,417.737Z" transform="translate(-236.566 -271.853)" opacity="0.1"/>
    <path id="Path_292" data-name="Path 292" d="M321.437,384s-.906,17.575,9.875,22.83,10.61,7.059,10.61,7.059l2.718-.544s-9.422-10.509-8.788-12.321-8.425-10.962-9.7-11.324S321.437,384,321.437,384Z" transform="translate(-227.676 -255.593)" fill="#0080ff"/>
    <path id="Path_293" data-name="Path 293" d="M321.967,384.73s-.906,17.575,9.875,22.83,10.6,7.066,10.6,7.066l2.718-.544s-9.422-10.509-8.788-12.321-8.436-10.962-9.694-11.324S321.967,384.73,321.967,384.73Z" transform="translate(-228.014 -256.059)" opacity="0.1"/>
    <path id="Path_294" data-name="Path 294" d="M329,405.23s8.7,13.136,10.237,13.589S331.073,405.411,329,405.23Z" transform="translate(-232.51 -269.13)" opacity="0.1"/>
    <path id="Path_295" data-name="Path 295" d="M318,343.5s5.617-4.53,6.342-5.436,8.7-1.268,8.969-1.268,6.342-3.714,13.136-4.892,9.512-1.721,9.512-1.721,9.965-4.167,10.509-5.073,5.164-1.9,10.871,2.537,18.3,24.37,18.391,26.544.906,6.16-1.54,7.429-20.2,5.889-23.736,8.7-28,4.99-28,4.99l-9.23-10.063-4.892-7.882-8.153-8.606Z" transform="translate(-225.497 -217.545)" fill="#0080ff"/>
    <path id="Path_296" data-name="Path 296" d="M356.2,593.15s-3.381.725-1.45,2.656S356.2,593.15,356.2,593.15Z" transform="translate(-248.55 -388.953)" opacity="0.1"/>
    <path id="Path_297" data-name="Path 297" d="M387.2,603.82s-3.624,4.349-2.9,5.555S387.2,603.82,387.2,603.82Z" transform="translate(-267.711 -395.756)" opacity="0.1"/>
    <path id="Path_298" data-name="Path 298" d="M445.87,619.15s-3.624,4.348-2.9,5.555S445.87,619.15,445.87,619.15Z" transform="translate(-305.12 -405.531)" opacity="0.1"/>
    <path id="Path_299" data-name="Path 299" d="M517.2,639.15s-3.624,4.349-2.9,5.555S517.2,639.15,517.2,639.15Z" transform="translate(-350.602 -418.283)" opacity="0.1"/>
    <path id="Path_300" data-name="Path 300" d="M613.2,663.15s-3.624,4.348-2.9,5.555S613.2,663.15,613.2,663.15Z" transform="translate(-411.814 -433.587)" opacity="0.1"/>
    <path id="Path_301" data-name="Path 301" d="M415.87,607.15s-3.624,4.348-2.9,5.555S415.87,607.15,415.87,607.15Z" transform="translate(-285.992 -397.88)" opacity="0.1"/>
    <path id="Path_302" data-name="Path 302" d="M555.2,649.15s-3.624,4.348-2.9,5.555S555.2,649.15,555.2,649.15Z" transform="translate(-374.832 -424.66)" opacity="0.1"/>
    <path id="Path_303" data-name="Path 303" d="M584.53,658.48s-3.624,4.349-2.9,5.559S584.53,658.48,584.53,658.48Z" transform="translate(-393.533 -430.609)" opacity="0.1"/>
    <path id="Path_304" data-name="Path 304" d="M471.87,627.15s-3.624,4.348-2.9,5.555S471.87,627.15,471.87,627.15Z" transform="translate(-321.699 -410.632)" opacity="0.1"/>
    <path id="Path_305" data-name="Path 305" d="M729.14,699.82l3.834,17.724S733,705.132,729.14,699.82Z" transform="translate(-487.65 -456.968)" opacity="0.1"/>
    <path id="Path_306" data-name="Path 306" d="M761.8,707.15l2.689,8.643A29.056,29.056,0,0,0,761.8,707.15Z" transform="translate(-508.475 -461.642)" opacity="0.1"/>
    <path id="Path_307" data-name="Path 307" d="M784.435,696.046s-5.736-20.895-6.947-22.344S780.982,694.719,784.435,696.046Z" transform="translate(-518.354 -440.272)" opacity="0.1"/>
    <path id="Path_308" data-name="Path 308" d="M807.488,683.476s-6.762-11.835-4.106-14.009S807.488,683.476,807.488,683.476Z" transform="translate(-534.594 -437.486)" opacity="0.1"/>
    <path id="Path_309" data-name="Path 309" d="M327.47,508.416l131.3,29.476,50.493-14.738-50.975,13.288S331.456,507.209,327.47,508.416Z" transform="translate(-231.535 -334.901)" opacity="0.1"/>
    <path id="Path_310" data-name="Path 310" d="M275.69,390.012l.181,84.343,3.714.453.181-85.068Z" transform="translate(-175.787 -248.516)" fill="#f5c5cc"/>
    <path id="Path_311" data-name="Path 311" d="M281.69,386.24l.362,87.785,1.359-1.449.181-85.068Z" transform="translate(-179.613 -246.285)" fill="#cc929b"/>
    <path id="Path_312" data-name="Path 312" d="M297.44,396.262l.181,84.343,3.714.453.181-85.068Z" transform="translate(-189.655 -252.501)" fill="#f5c5cc"/>
    <path id="Path_313" data-name="Path 313" d="M303.44,392.49l.362,87.785,1.359-1.449.181-85.068Z" transform="translate(-193.481 -250.27)" fill="#cc929b"/>
    <path id="Path_314" data-name="Path 314" d="M318.69,403.012l.181,84.343,3.714.453.181-85.068Z" transform="translate(-203.205 -256.805)" fill="#f5c5cc"/>
    <path id="Path_315" data-name="Path 315" d="M324.69,399.24l.362,87.785,1.359-1.449.181-85.068Z" transform="translate(-207.03 -254.574)" fill="#cc929b"/>
    <path id="Path_316" data-name="Path 316" d="M339.44,404.643l.181,87.3,3.714.468.181-88.054Z" transform="translate(-216.435 -257.838)" fill="#f5c5cc"/>
    <path id="Path_317" data-name="Path 317" d="M345.44,400.74l.362,90.866,1.359-1.5.181-88.054Z" transform="translate(-220.261 -255.53)" fill="#cc929b"/>
    <path id="Path_318" data-name="Path 318" d="M361.94,406.893l.181,87.3,3.714.467.181-88.053Z" transform="translate(-230.782 -259.273)" fill="#f5c5cc"/>
    <path id="Path_319" data-name="Path 319" d="M367.94,402.99l.362,90.866,1.359-1.5.181-88.054Z" transform="translate(-234.608 -256.965)" fill="#cc929b"/>
    <path id="Path_320" data-name="Path 320" d="M383.94,415.143l.181,87.3,3.714.467.181-88.053Z" transform="translate(-244.81 -264.533)" fill="#f5c5cc"/>
    <path id="Path_321" data-name="Path 321" d="M389.94,411.24l.362,90.866,1.359-1.5.181-88.054Z" transform="translate(-248.636 -262.225)" fill="#cc929b"/>
    <path id="Path_322" data-name="Path 322" d="M409.19,420.75l.181,89.739,3.714.482.181-90.51Z" transform="translate(-260.91 -268.104)" fill="none"/>
    <path id="Path_323" data-name="Path 323" d="M415.19,416.74l.362,93.4,1.359-1.544.181-90.51Z" transform="translate(-264.736 -265.732)" fill="#cc929b"/>
    <path id="Path_324" data-name="Path 324" d="M431.19,423.75l.181,89.739,3.714.482.181-90.51Z" transform="translate(-274.938 -270.017)" fill="#f5c5cc"/>
    <path id="Path_325" data-name="Path 325" d="M437.19,419.74l.362,93.4,1.359-1.544.181-90.51Z" transform="translate(-278.763 -267.645)" fill="#cc929b"/>
    <path id="Path_326" data-name="Path 326" d="M454.44,430.75l.181,89.738,3.714.482.181-90.51Z" transform="translate(-289.762 -274.48)" fill="#f5c5cc"/>
    <path id="Path_327" data-name="Path 327" d="M460.44,426.74l.362,93.4,1.359-1.544.181-90.51Z" transform="translate(-293.588 -272.108)" fill="#cc929b"/>
    <path id="Path_328" data-name="Path 328" d="M479.69,438.5l.181,89.739,3.714.482.181-90.51Z" transform="translate(-305.862 -279.422)" fill="#f5c5cc"/>
    <path id="Path_329" data-name="Path 329" d="M485.69,434.49l.362,93.4,1.359-1.544.181-90.51Z" transform="translate(-309.688 -277.05)" fill="#cc929b"/>
    <path id="Path_330" data-name="Path 330" d="M505.19,442.837l.181,91.652,3.714.493.181-92.442Z" transform="translate(-322.122 -282.183)" fill="#f5c5cc"/>
    <path id="Path_331" data-name="Path 331" d="M511.19,438.74l.362,95.4,1.359-1.576.181-92.442Z" transform="translate(-325.948 -279.76)" fill="#cc929b"/>
    <path id="Path_332" data-name="Path 332" d="M531.44,447.9l.181,93.047,3.714.5.181-93.848Z" transform="translate(-338.859 -285.409)" fill="#cc929b"/>
    <path id="Path_333" data-name="Path 333" d="M537.44,443.74l.362,96.845,1.359-1.6.181-93.848Z" transform="translate(-342.685 -282.948)" fill="none"/>
    <path id="Path_334" data-name="Path 334" d="M558.19,454.9l.181,93.047,3.714.5.181-93.848Z" transform="translate(-355.916 -289.873)" fill="#f5c5cc"/>
    <path id="Path_335" data-name="Path 335" d="M564.19,450.74l.362,96.845,1.359-1.6.181-93.848Z" transform="translate(-359.742 -287.411)" fill="#cc929b"/>
    <path id="Path_336" data-name="Path 336" d="M582.94,460.151l.181,93.047,3.714.5.181-93.848Z" transform="translate(-371.697 -293.22)" fill="#cc929b"/>
    <path id="Path_337" data-name="Path 337" d="M588.94,455.99l.362,96.845,1.359-1.6.181-93.848Z" transform="translate(-375.523 -290.759)" fill="none"/>
    <path id="Path_338" data-name="Path 338" d="M248.8,429.381l-3.8,1.45h-3.624l-.181-132.992,1.993-2.9,1.924-.591,2.787-.859Z" transform="translate(-153.789 -187.145)" fill="#f5c5cc"/>
    <path id="Path_339" data-name="Path 339" d="M255.08,429.381l-3.8,1.45-.236-132.7.348-3.783,2.787-.859Z" transform="translate(-160.069 -187.145)" fill="#cc929b"/>
    <circle id="Ellipse_55" data-name="Ellipse 55" cx="4.349" cy="4.349" r="4.349" transform="translate(87.22 239.156)" fill="#40414d"/>
    <path id="Path_340" data-name="Path 340" d="M785.8,468.23l-3.8,1.384h-3.624l-.181-146.233,1.993.493,1.924-.565,2.787-.819Z" transform="translate(-496.193 -205.636)" fill="#f5c5cc"/>
    <path id="Path_341" data-name="Path 341" d="M792.08,468.23l-3.8,1.384-.236-142.689.348-3.617,2.787-.819Z" transform="translate(-502.474 -205.636)" fill="#cc929b"/>
    <path id="Path_342" data-name="Path 342" d="M646.676,467.586l-3.8.362-.174-97.693-.007-3.772,2.537-1.993.072,5.207Z" transform="translate(-409.795 -232.416)" fill="#f5c5cc"/>
    <path id="Path_343" data-name="Path 343" d="M683.676,452.086l-3.8.362-.17-95.888-.011-5.577,2.536-1.993.094,6.617Z" transform="translate(-433.387 -222.533)" fill="#f5c5cc"/>
    <path id="Path_344" data-name="Path 344" d="M744.676,427.086l-3.8.362-.17-95.663-.011-5.8,2.537-1.993.094,6.708Z" transform="translate(-472.282 -206.592)" fill="#f5c5cc"/>
    <path id="Path_345" data-name="Path 345" d="M767.19,315.983l.181,101.465,3.8-.362-1.45-103.1Z" transform="translate(-489.18 -200.216)" fill="#f5c5cc"/>
    <path id="Path_346" data-name="Path 346" d="M665.176,464.586l-3.8.362L661.2,366.7l-.007-3.218,2.537-1.993.062,4.425Z" transform="translate(-421.591 -230.503)" fill="#f5c5cc"/>
    <path id="Path_347" data-name="Path 347" d="M701.676,444.586l-3.8.362-.17-95.634-.011-5.831,2.537-1.993.094,6.769Z" transform="translate(-444.865 -217.751)" fill="#f5c5cc"/>
    <path id="Path_348" data-name="Path 348" d="M722.006,437.916l-3.8.362-.17-95.634v-.569l-.011-5.262,2.537-1.993.087,6.182.007.587Z" transform="translate(-457.828 -213.498)" fill="#f5c5cc"/>
    <path id="Path_349" data-name="Path 349" d="M632.69,607.838l52.544-22.348,3.624.844.12,8.335-55.32,21.38Z" transform="translate(-403.419 -373.331)" fill="#f5c5cc"/>
    <path id="Path_350" data-name="Path 350" d="M685.234,585.49,632.69,607.838l55.972-21.55" transform="translate(-403.419 -373.331)" fill="#cc929b"/>
    <path id="Path_351" data-name="Path 351" d="M256.172,614.49l132.51,40.224-.243,6.523L255.69,620.288Z" transform="translate(-163.034 -391.823)" fill="#f5c5cc"/>
    <path id="Path_352" data-name="Path 352" d="M688.03,549.68l-3.8,1.449H680.6l-.181-148.936h0v-.725l.283-.413,1.71-2.486,1.924-.591,2.787-.859.029,5.073Z" transform="translate(-456.585 -263.959)" fill="#f5c5cc"/>
    <path id="Path_353" data-name="Path 353" d="M631.58,520.05l-3.8,1.45-.236-149.367.348-3.783,2.787-.859Z" transform="translate(-400.135 -234.329)" fill="#cc929b"/>
    <path id="Path_354" data-name="Path 354" d="M687.124,397.12l.029,5.073a30.894,30.894,0,0,1-3.164.3,9.683,9.683,0,0,1-3.569-.294h0c0-.051.1-.457.283-1.134l1.71-2.486,1.924-.591Z" transform="translate(-456.585 -263.959)" opacity="0.1"/>
    <path id="Path_355" data-name="Path 355" d="M707.969,394.12l.072,5.207q-1.4.326-2.6.558v-3.772Z" transform="translate(-472.538 -262.046)" opacity="0.1"/>
    <path id="Path_356" data-name="Path 356" d="M726.469,391.12l.062,4.425c-.9.286-1.768.547-2.591.786v-3.218Z" transform="translate(-484.334 -260.133)" opacity="0.1"/>
    <path id="Path_357" data-name="Path 357" d="M744.976,378.62l.094,6.617q-1.359.5-2.62.953v-5.577Z" transform="translate(-496.137 -252.163)" opacity="0.1"/>
    <path id="Path_358" data-name="Path 358" d="M762.976,371.12l.094,6.769-2.087.841-.533.214v-5.831Z" transform="translate(-507.614 -247.381)" opacity="0.1"/>
    <path id="Path_359" data-name="Path 359" d="M806.07,360.334l-2.62,1.087v-5.8l2.537-1.993Z" transform="translate(-535.032 -236.229)" opacity="0.1"/>
    <path id="Path_360" data-name="Path 360" d="M783.4,370.658l-2.613,1.087v-5.262l2.537-1.993Z" transform="translate(-520.583 -243.153)" opacity="0.1"/>
    <path id="Path_361" data-name="Path 361" d="M747.459,334.857s-6.7,0-8.516-.544-5.617,1.631-28.99,11.052c-14.133,5.7-21.978,7.023-25.964,7.179a9.682,9.682,0,0,1-3.569-.293s4.772-21.895,19.97-25.986a45.058,45.058,0,0,0,4.99-1.678l.293-.112a29.713,29.713,0,0,1,3.917-1.214c4.878-1.12,8.36-3.261,17.177-3.327a24.116,24.116,0,0,1,15.14,5.022C744.93,327.334,747.536,330.62,747.459,334.857Z" transform="translate(-456.585 -214.741)" fill="#cc929b"/>
    <path id="Path_362" data-name="Path 362" d="M706.33,332.12c-18.807,8.11-21.677,23.268-22.34,28.2a9.683,9.683,0,0,1-3.569-.294s4.772-21.895,19.97-25.986a45.07,45.07,0,0,0,4.99-1.678l.293-.112C705.891,332.214,706.109,332.171,706.33,332.12Z" transform="translate(-456.585 -222.513)" fill="#f5c5cc"/>
    <path id="Path_363" data-name="Path 363" d="M334.463,331.12l.04,2.776c-.917.228-1.772.428-2.573.6v-1.381Z" transform="translate(-234.379 -221.876)" opacity="0.1"/>
    <path id="Path_364" data-name="Path 364" d="M352.957,328.12l.025,1.91q-1.337.442-2.562.808v-.725Z" transform="translate(-246.168 -219.963)" opacity="0.1"/>
    <path id="Path_365" data-name="Path 365" d="M371.463,315.62l.058,4.044q-1.337.511-2.591.964v-3.015Z" transform="translate(-257.971 -211.993)" opacity="0.1"/>
    <path id="Path_366" data-name="Path 366" d="M389.469,308.12l.058,4.2q-1.25.482-2.587,1.018v-3.221Z" transform="translate(-269.454 -207.21)" opacity="0.1"/>
    <path id="Path_367" data-name="Path 367" d="M406.963,303.12l.051,3.718q-1.232.413-2.584.9v-2.624Z" transform="translate(-280.606 -204.022)" opacity="0.1"/>
    <path id="Path_368" data-name="Path 368" d="M432.469,290.62l.08,5.646c-.8.167-1.667.362-2.609.605v-4.258Z" transform="translate(-296.872 -196.052)" opacity="0.1"/>
    <path id="Path_369" data-name="Path 369" d="M459.106,289.792a9.555,9.555,0,0,0-2.656-.587v-6.631l2.537-1.993Z" transform="translate(-313.776 -189.65)" opacity="0.1"/>
    <path id="Path_370" data-name="Path 370" d="M370.959,281.539s-6.7,0-8.516-.544-5.617-3.443-28.99,5.979c-14.133,5.7-21.978,7.023-25.964,7.179a9.683,9.683,0,0,1-3.569-.294s3.6-19.025,19.467-22.235a23.328,23.328,0,0,0,2.62-.67c.975-.319,2.511-.775,4.577-1.25a95.774,95.774,0,0,1,25.9-2,16.06,16.06,0,0,1,10.8,4.733,12.433,12.433,0,0,1,3.685,9.1Z" transform="translate(-216.519 -181.354)" fill="#cc929b"/>
    <path id="Path_371" data-name="Path 371" d="M330.584,273.46c-18.807,8.11-22.431,19.521-23.094,24.449a9.684,9.684,0,0,1-3.569-.294s3.6-19.025,19.467-22.235a23.333,23.333,0,0,0,2.62-.67C326.982,274.38,328.518,273.935,330.584,273.46Z" transform="translate(-216.519 -185.11)" fill="#f5c5cc"/>
    <path id="Path_372" data-name="Path 372" d="M255.531,378.582l-.091-5.345,1.9-1,130.093,29.171-.362,6.795Z" transform="translate(-162.875 -237.358)" fill="#f5c5cc"/>
    <path id="Path_373" data-name="Path 373" d="M257.84,372.24l130.093,29.171-.181,2.537L256.22,373.088" transform="translate(-163.372 -237.358)" fill="#cc929b"/>
    <circle id="Ellipse_56" data-name="Ellipse 56" cx="4.349" cy="4.349" r="4.349" transform="translate(281.453 259.63)" fill="#40414d"/>
    <circle id="Ellipse_57" data-name="Ellipse 57" cx="4.349" cy="4.349" r="4.349" transform="translate(223.835 284.271)" fill="#40414d"/>
    <path id="Path_374" data-name="Path 374" d="M322.61,579.45s-3.867,4.349-5.073,8.215,1.45,18.362,1.45,18.362a26.688,26.688,0,0,0,2.9-7.733C322.849,593.706,322.61,579.45,322.61,579.45Z" transform="translate(-225.001 -380.217)" fill="#0080ff"/>
    <path id="Path_375" data-name="Path 375" d="M832.363,679.12s2.355,11.958,2.537,13.77-5.979-.906-5.979-.906Z" transform="translate(-551.272 -443.769)" fill="#0080ff"/>
    <path id="Path_376" data-name="Path 376" d="M478.52,133.944h-.062a.725.725,0,0,0-.134-.341,1.779,1.779,0,0,0-.6-.457l-1.7-.946,1.468.533a3.286,3.286,0,0,0-.228-.341l.17.094-.116-.163-.156-.054a4.3,4.3,0,0,0-3.352-1.279h.022c.163-.022.33-.036.493-.047a5.88,5.88,0,0,0-1.087.033h0a.508.508,0,0,0,.127.036,3.4,3.4,0,0,0-.362.036,1.087,1.087,0,0,1-.569,0,.822.822,0,0,1-.438-.6,6.623,6.623,0,0,1,.188-2.261,2.423,2.423,0,0,0-.112-1.055v-.217a1.087,1.087,0,0,0-.725-.667.655.655,0,0,0,0,.083l-.062-.025v1.95a7.774,7.774,0,0,1-1.482-1.544.678.678,0,0,1-.149-.308c-.036-.33.384-.558.41-.891a.5.5,0,0,0-.362-.471l.109-.04a.816.816,0,0,0-.413-.072,6.941,6.941,0,0,0-.913.275l.094.018a2.063,2.063,0,0,1-.214.058c-.91.188-1.721-.536-2.377-1.192l-.141-.141c-.312-2.729-.815-5.856-.815-5.856a38.965,38.965,0,0,0-1.087-5.494c-.634-1.921-1.547-5.312-1.547-5.312s-2.087-4.12-2.537-4.3a5.532,5.532,0,0,1-.511-.29,8.116,8.116,0,0,1-.362-1.9c-.112-3.6,3.736-6.16,4.316-9.73.475-2.9-1.352-5.8-1.087-8.737a31.744,31.744,0,0,1,.92-3.758,10.121,10.121,0,0,0,.105-3.722,6.135,6.135,0,0,0-.594-1.91,10.316,10.316,0,0,0,1.308-2.214,6.188,6.188,0,0,0-.964-5.073,20.207,20.207,0,0,0-14.495-9.193c-2.25-.207-4.508-.246-6.762-.283-2.587-.047-5.262-.076-7.653.924-4.754,1.989-7,7.305-9.893,11.6a32.875,32.875,0,0,1-8.994,8.976c-1.671,1.116-3.624,2.3-4.015,4.287a3.9,3.9,0,0,0-.069.576,5.316,5.316,0,0,1-.12-.529c-.395,2.069,1.065,3.986,1.812,5.961a10.509,10.509,0,0,1,.667,3.222,14.1,14.1,0,0,0,0-1.565c.725,3.761-.605,7.8-1.428,11.643-.062.283-.109.565-.167.848a6.933,6.933,0,0,0-1.906.859,10.719,10.719,0,0,1-4.283,1.667,8,8,0,0,0-5.153,3.095c-.232.312-.457.525-.652.547-.815.094-5.36,14.285-5.36,14.285s-.946,5.845-.946,7.215-1.634,11.263-1.634,11.263a7.472,7.472,0,0,0-.362,2.562,11.455,11.455,0,0,1-.38,2.935.652.652,0,0,1-.254-.188c-.272-.547-5.273,0-3.725,3.664a7.182,7.182,0,0,0,1.75,2.6,17.546,17.546,0,0,0-1.207,3.533s0,1.308.116,2.924c-1.062.725-1.931,1.377-1.931,1.377-.076,2,1.257,2.319,2.511,2.247.323,1.16.794,2.08,1.486,2.33,2.272.826,3.725.46,4.454,1.087s4.613,1.844,4.613,1.844a45.938,45.938,0,0,0,4.979.475l.667.333-.08-.362c.214-.04.116-.294-.152-.725-.12-.554-.272-1.279-.442-2.105l1-.362.272.4c-.362,1.9-.594,3.164-.594,3.164s-1.812,6.5-1,7.508a2.106,2.106,0,0,1,0,2.29s-.181,1.645.275,1.645,1,2.105.544,2.2-2.537,1.83-1.812,2.2,0,1.189,0,2.015c0,.6,1.109,1.493,1.71,1.931-.109.391-.221.808-.326,1.218a10.3,10.3,0,0,0-.478,2.8c.181,1.007-.453,3.845-.272,4.762s.819,2.928.362,3.754.091,3.569.091,3.569l.819,7.78s-.544,2.2,0,2.747,1,6.961,1.544,7.693,1.366,4.577.725,5.86.819,3.935.819,3.935-.091,3.113-.091,3.935a5.412,5.412,0,0,0,.815,2.105,42.309,42.309,0,0,1,.725,5.494,7.243,7.243,0,0,0,.544,2.656,29.492,29.492,0,0,1,.457,3.935,3.108,3.108,0,0,0,.725,1.739s1,2.381.725,3.388a2.5,2.5,0,0,0,.634,2.015s-.091,2.2-.091,2.471a19.287,19.287,0,0,0,1.91,2.471s-.819,1.649-.362,2.29.362,2.928,1.087,3.664.544,3.751,1.45,4.3,1.725,1.007,1.906,2.2.91,2.932,1.728,3.207a1.576,1.576,0,0,1,.4.395l-.362,1.54-1.12,4.656s-1.087,6.773-1,7.78-1.087,2.015-1.087,2.015-1,5.86-1.181,6.592a6.55,6.55,0,0,0,.091,2.105s-.634,3.479-.181,3.664a20.218,20.218,0,0,1,2.363,2.105h.149l-.2.689-3.135,11.125s-2.9,4.852,3.819,7.324c.225.435.431.446.188.362.221.188,4.711,3.986,5.073,5.765s3.453,3.66,4.544,3.845,8.36,6.041,10.994.275-4.635-9.523-4.635-9.523l-5.534-3.562s-2.816-4.12-3.261-4.852-1.272-4.3-.725-4.852a35.871,35.871,0,0,0,1.942-5.175c.072-.228.149-.453.221-.678a6.235,6.235,0,0,0,3.29-.362l4.048-6.385.725-1.12.13.261s3.363.275,5,.551a4.71,4.71,0,0,0,1.536-.192c.062.134.123.272.181.41a20.037,20.037,0,0,1,1.007,2.62c.272,1.189.547,5.4.547,5.4s-1.812,6.044-2.272,7.142.453,10.255,9.451,6.592c0,0,1.087-1.739,2.087-1.739s3.453-2.471,2.537-5.128-4.711-10.8-2.087-15.1c2.116-3.464,1.946-8.11-.9-10.27-.12-.091-.246-.17-.362-.25a10.373,10.373,0,0,0,0-1.384c-.638-8.788-4.711-9.248-4.711-9.248s-2.363-.547-2.634-1.449a52.343,52.343,0,0,0-3.9-5.483c.058-.094.112-.188.167-.283,0-.033.036-.065.051-.1.08-.149.156-.3.228-.46,1.319-2.964.978-7.276.91-8.048-.091-1.007,0-2.29,0-3.754s1.45-3.664,1.272-4.486,1.729-4.211,1.729-5.037,1.337-5.773,1.337-5.773,2.634-5.678,3.182-7.327c.522-1.58,9.828-30.382,10.581-32.715a1.406,1.406,0,0,1,.051-.152s2.971-9.723.982-16.108a10.234,10.234,0,0,0-.467-1.236c.609-.294,1.029-.507,1.029-.507s-1.181-3.479-.638-4.762a9.224,9.224,0,0,0,.181-3.754s-2.174-1.283-2.268-1.83-1-1.283-.725-2.015,1.812-.362,1.634-2.015-2.087-3.388-1.906-4.4.906-2.837,0-3.935a7.748,7.748,0,0,1-1.363-4.211c-.025-.362.054-1.431.181-2.841a31.912,31.912,0,0,0,3,1.649s3.906.551,4.091.185a8.614,8.614,0,0,1,1.181-1.283c4.906-1.189,2.725-10.147,2.725-10.147s-.072-.656-.188-1.736a.953.953,0,0,0,.341-.163c.417-.3.518-.884.772-1.341a6.664,6.664,0,0,1,1.007-1.181,11.554,11.554,0,0,0,1.946-3.457c.326-.783.66-1.565.989-2.352a4.175,4.175,0,0,1,4.475-3.193,3.787,3.787,0,0,0-.866-2.218,2.225,2.225,0,0,1,1.906.29.759.759,0,0,0,.04-.076h.022A.489.489,0,0,0,478.52,133.944Zm-77.6,25.073c.022-.181.054-.362.094-.544.178-.167.391-.362.62-.544l1.268.123c-.312.254-.583.486-.8.674A1.1,1.1,0,0,0,400.925,159.017Zm2.537-2.511a1.949,1.949,0,0,0,.525-.112H405.1c-.605.424-1.218.9-1.761,1.334l.127-1.192Zm2.091-18.481s-.083,2.6.1,5.218c-.283.2-.576.417-.866.645l.641-6.034Z" transform="translate(-268.818 -46.555)" fill="url(#linear-gradient)"/>
    <path id="Path_377" data-name="Path 377" d="M549.469,737.269c-1,0-2.084,1.721-2.084,1.721-8.969,3.624-9.875-5.436-9.422-6.523s2.265-7.066,2.265-7.066-.272-4.167-.544-5.345a20.219,20.219,0,0,0-1-2.591c-.609-1.388-1.261-2.754-1.261-2.754s3.9-9.6,9.059-8.7a5.826,5.826,0,0,1,2.537,1.087c2.837,2.138,3.008,6.737.9,10.147-2.627,4.258,1.178,12.321,2.084,14.948S550.466,737.269,549.469,737.269Z" transform="translate(-365.404 -460.879)" fill="#fdc2cc"/>
    <path id="Path_378" data-name="Path 378" d="M488.611,778.2c-2.627,5.707-9.875-.091-10.962-.272s-4.167-1.993-4.53-3.8-4.845-5.519-5.073-5.7c.243.076.036.065-.188-.362-6.7-2.446-3.8-7.248-3.8-7.248l3.124-11.009.863-3.033,9.784-.634s-.67,2.142-1.417,4.392a35.1,35.1,0,0,1-1.935,5.12c-.544.544.272,4.077.725,4.8s3.261,4.8,3.261,4.8l5.526,3.533S491.238,772.489,488.611,778.2Z" transform="translate(-318.226 -486.497)" fill="#fdc2cc"/>
    <path id="Path_379" data-name="Path 379" d="M484.437,746.12s-.67,2.142-1.417,4.392a2.606,2.606,0,0,1-1.3-.859l-7.882.181-.047-.047.862-3.033Z" transform="translate(-324.832 -486.49)" opacity="0.1"/>
    <path id="Path_380" data-name="Path 380" d="M511.977,465.316a.392.392,0,0,1-.047.149c-.754,2.308-10.031,30.8-10.552,32.375-.544,1.631-3.171,7.248-3.171,7.248s-1.359,4.892-1.359,5.707-1.9,4.167-1.721,4.983-1.268,2.99-1.268,4.439-.091,2.718,0,3.714c.069.765.406,5.033-.91,7.972a5.359,5.359,0,0,1-1.25,1.812,3.875,3.875,0,0,1-.467.362c-3.261,2.174-3.533,24.46-3.533,24.46l-.152.239-1.323,2.073-4.051,6.305s-3.261,1.359-4.8-.544l-7.882.181a19.836,19.836,0,0,0-2.355-2.084c-.453-.181.181-3.624.181-3.624a6.417,6.417,0,0,1-.091-2.084c.181-.725,1.178-6.523,1.178-6.523s1.178-1,1.087-1.993,1-7.7,1-7.7l1.116-4.606.551-2.272,1.141-4.711,7.7-68.036,9.784-2.99,18.843.906,2.066,3.732Z" transform="translate(-320.483 -304.161)" fill="#5f5d7e"/>
    <path id="Path_381" data-name="Path 381" d="M494.551,498.7a44.619,44.619,0,0,0-.362,5.889c.181,1.54.815,7.338.544,8.425s1,2.355,1.449,2.9.181,2.174.272,3.443a4.634,4.634,0,0,0,1.268,2.446s-1.359,2.9-.362,3.352,3.08,4.62,3.08,4.62.7.88,1.627,2.076a4.967,4.967,0,0,1-1.718,2.174c-3.261,2.174-3.533,24.46-3.533,24.46l-.152.239-2.022-4.044S482.593,536.47,481.777,536.2a1.275,1.275,0,0,1-.507-.362l1.141-4.711,7.7-68.036,9.784-2.99,18.843.906-9.922,1s-4.41,3.164-4.439,3.261l-7.925,3.352L495,490.358S494.642,496.979,494.551,498.7Z" transform="translate(-329.602 -304.117)" opacity="0.1"/>
    <path id="Path_382" data-name="Path 382" d="M519.836,464.79c-.25,1.007-26.345-2.011-26.345-2.011l.181,6.976L492.223,491.5s-.362,6.613-.453,8.335a44.619,44.619,0,0,0-.362,5.889c.181,1.54.815,7.338.544,8.425s1,2.355,1.449,2.9.181,2.174.272,3.443a4.635,4.635,0,0,0,1.268,2.446s-1.359,2.9-.362,3.352,3.08,4.62,3.08,4.62,1,1.257,2.174,2.8a3.871,3.871,0,0,1-.467.362c-3.261,2.174-3.533,24.46-3.533,24.46l-.152.239-1.308,2.08-2.511-5.019s-9.295-14.049-12.111-17.651l.551-2.272,1.141-4.711,7.7-68.036,9.784-2.99,18.844.906Z" transform="translate(-328.632 -304.161)" opacity="0.1"/>
    <path id="Path_383" data-name="Path 383" d="M549.027,707.087c-.362,6.486-7.2,9.661-10.346,10.378-.609-1.388-1.261-2.754-1.261-2.754s3.9-9.6,9.059-8.7A5.827,5.827,0,0,1,549.027,707.087Z" transform="translate(-365.404 -460.879)" opacity="0.1"/>
    <path id="Path_384" data-name="Path 384" d="M463.374,468.784a44.619,44.619,0,0,0-.362,5.889c.181,1.54.815,7.338.544,8.425s1,2.355,1.45,2.9.181,2.174.272,3.443a4.634,4.634,0,0,0,1.268,2.446s-1.359,2.9-.362,3.352,3.08,4.62,3.08,4.62,5.889,7.429,6.16,8.335,2.627,1.45,2.627,1.45,4.077.453,4.711,9.15-10.056,12.049-11.687,11.777-4.983-.544-4.983-.544l-2.627-5.254S451.416,506.562,450.6,506.29s-1.54-1.993-1.721-3.171-1-1.631-1.9-2.174-.725-3.533-1.45-4.258-.634-2.99-1.087-3.624.362-2.265.362-2.265a19.162,19.162,0,0,1-1.9-2.446c0-.272.091-2.446.091-2.446a2.474,2.474,0,0,1-.634-1.993c.272-1-.725-3.352-.725-3.352a3.059,3.059,0,0,1-.725-1.721,29.008,29.008,0,0,0-.453-3.9,7.17,7.17,0,0,1-.544-2.627,42.058,42.058,0,0,0-.725-5.436,5.316,5.316,0,0,1-.815-2.084c0-.815.091-3.9.091-3.9s-1.45-2.627-.815-3.9-.181-5.073-.725-5.8-1-7.066-1.54-7.61,0-2.718,0-2.718l-.815-7.7s-.544-2.718-.091-3.533-.181-2.808-.362-3.714.453-3.714.272-4.711a10.2,10.2,0,0,1,.475-2.772c.428-1.652.975-3.388.975-3.388s46.565-4.349,53.269.181a7.6,7.6,0,0,1,2.9,4.171c1.982,6.32-.982,15.945-.982,15.945l-25.729,3.352-1.449,21.743S463.464,467.063,463.374,468.784Z" transform="translate(-299.511 -274.2)" fill="#5f5d7e"/>
    <path id="Path_385" data-name="Path 385" d="M494.42,653.2s8.063-2.446,9.965-.815S494.42,653.2,494.42,653.2Z" transform="translate(-337.986 -426.364)" opacity="0.1"/>
    <path id="Path_386" data-name="Path 386" d="M502.42,679.816A6.727,6.727,0,0,1,508.49,678a9.874,9.874,0,0,0,6.342-.634Z" transform="translate(-343.087 -442.653)" opacity="0.1"/>
    <path id="Path_387" data-name="Path 387" d="M525.92,691.612s6.613-.906,6.885-.091S525.92,691.612,525.92,691.612Z" transform="translate(-358.072 -451.46)" opacity="0.1"/>
    <path id="Path_388" data-name="Path 388" d="M520.032,704.5s7.338-2.174,7.7-1.268-8.063,1.178-8.063,1.178Z" transform="translate(-354.086 -459.003)" opacity="0.1"/>
    <path id="Path_389" data-name="Path 389" d="M532.885,572.37s-6.885,6.07-5.889,6.7S532.885,572.37,532.885,572.37Z" transform="translate(-358.695 -375.703)" opacity="0.1"/>
    <path id="Path_390" data-name="Path 390" d="M527.92,613.87s4.8,0,3.9,1.087S527.92,613.87,527.92,613.87Z" transform="translate(-359.347 -402.164)" opacity="0.1"/>
    <path id="Path_391" data-name="Path 391" d="M533.247,625.62s-1.9,1.631-1.449,1.993S533.247,625.62,533.247,625.62Z" transform="translate(-361.775 -409.656)" opacity="0.1"/>
    <path id="Path_392" data-name="Path 392" d="M478.17,732.87s5.979,1.993,6.07,3.261S478.17,732.87,478.17,732.87Z" transform="translate(-327.625 -478.042)" opacity="0.1"/>
    <path id="Path_393" data-name="Path 393" d="M495.149,179.862l-1.9,11.324s-16.488,8.7-16.76,8.7-12.049-1.993-12.5-1.993-8.153-23.283-2.718-24.732a35.513,35.513,0,0,0,5.936-2.5c6.284-3.142,13.995-7.914,13.995-7.914s11.505-1.268,8.7,6.7c-1.087,3.127-.529,5.4.569,7.016A9.8,9.8,0,0,0,495.149,179.862Z" transform="translate(-315.614 -114.465)" fill="#fdc2cc"/>
    <path id="Path_394" data-name="Path 394" d="M495.149,193.918l-1.9,11.324s-16.488,8.7-16.76,8.7-12.049-1.993-12.5-1.993-8.153-23.283-2.718-24.732a35.513,35.513,0,0,0,5.936-2.5c1.482.1,2.49.239,2.49.239s3.624,13.861,3.9,18.119,9.694,4.711,10.328,4.53,3.261-10.6,3.261-10.6-.272-3.624.544-3.624c.681,0,2.254-2.174,2.743-2.859A9.8,9.8,0,0,0,495.149,193.918Z" transform="translate(-315.614 -128.521)" opacity="0.1"/>
    <path id="Path_395" data-name="Path 395" d="M493.333,419.42c-1.261.616-4.276,2.022-5.073,1.812a19.689,19.689,0,0,0-3.443-.272s-1.45,1.631-2.99,1.268-7.61-.091-7.61-.091-10.871.453-12.955-.272-9.512-1.359-9.512-1.359-10.147-1.178-11.868-1.9a2.968,2.968,0,0,0-2.99.362s-.315-.207-.7-.507c.428-1.652.975-3.388.975-3.388s46.565-4.348,53.269.181A7.5,7.5,0,0,1,493.333,419.42Z" transform="translate(-300.857 -274.207)" opacity="0.1"/>
    <path id="Path_396" data-name="Path 396" d="M438.345,184.263s-9.15-1.268-12.774,1.178a10.719,10.719,0,0,1-4.269,1.649,7.991,7.991,0,0,0-5.138,3.062c-.232.312-.457.522-.649.544-.815.091-5.345,14.133-5.345,14.133l10.962,15.31s-.272,8.516,1.268,10.146-2.174,20.293-2.174,20.293-1.812,6.432-1,7.429a2.056,2.056,0,0,1,0,2.265s-.181,1.631.272,1.631,1,2.084.544,2.174-2.537,1.812-1.812,2.174,0,1.178,0,1.993,2.084,2.174,2.084,2.174a2.968,2.968,0,0,1,2.99-.362c1.721.725,11.868,1.9,11.868,1.9s7.429.634,9.512,1.359,12.955.272,12.955.272,6.07-.272,7.61.091,2.99-1.268,2.99-1.268a19.687,19.687,0,0,1,3.443.272c1,.272,5.617-2.084,5.617-2.084s-1.178-3.443-.634-4.711a9.032,9.032,0,0,0,.181-3.714s-2.174-1.268-2.265-1.812-1-1.268-.725-1.993,1.812-.362,1.631-1.993-2.084-3.352-1.9-4.349.906-2.808,0-3.9a7.613,7.613,0,0,1-1.359-4.167c-.091-1.359,1.359-13.68,1.359-13.68l-3.352-24.823,10.237-5.073a38.255,38.255,0,0,0-1.087-5.436c-.634-1.9-1.54-5.254-1.54-5.254s-2.084-4.077-2.537-4.258-5.254-3.352-6.341-2.9-9.694,7.066-9.694,7.066-2.084,3.08-2.9,3.08-.544,3.624-.544,3.624-2.627,10.418-3.261,10.6-10.056-.272-10.328-4.53S438.345,184.263,438.345,184.263Z" transform="translate(-284.266 -127.111)" fill="#d39999"/>
    <path id="Path_397" data-name="Path 397" d="M433.226,325.259a20.541,20.541,0,0,1-3.823.471c-1.859.051-3.493-.185-3.9-.855-1.087-1.812-1.087-5.254-1.087-5.254s4.914,1.134,8.306,2.374l.562.21h0a5.445,5.445,0,0,1,2.537,1.489C436.139,324.305,434.925,324.878,433.226,325.259Z" transform="translate(-293.353 -214.543)" fill="#fdc2cc"/>
    <circle id="Ellipse_58" data-name="Ellipse 58" cx="16.579" cy="16.579" r="16.579" transform="translate(158.88 27.166)" opacity="0.1"/>
    <circle id="Ellipse_59" data-name="Ellipse 59" cx="16.579" cy="16.579" r="16.579" transform="translate(158.88 26.441)" fill="#fdc2cc"/>
    <path id="Path_398" data-name="Path 398" d="M445.67,395.37a41.786,41.786,0,0,1,6.523.453,36.16,36.16,0,0,0,5.617.544S447.3,396,445.67,395.37Z" transform="translate(-306.902 -262.843)" opacity="0.1"/>
    <path id="Path_399" data-name="Path 399" d="M446.17,403.37s6.07.453,6.16,1.359S446.17,403.37,446.17,403.37Z" transform="translate(-307.221 -267.944)" opacity="0.1"/>
    <path id="Path_400" data-name="Path 400" d="M573.67,372.62s3.714,1.359,3.624,1.812S574.032,373.707,573.67,372.62Z" transform="translate(-388.518 -248.337)" opacity="0.1"/>
    <path id="Path_401" data-name="Path 401" d="M400.557,239.62l-2.355,1.631s-1,5.8-1,7.157-1.631,11.143-1.631,11.143a7.5,7.5,0,0,0-.362,2.537c.181.725-.725,4.439-.725,4.439s-3.261,7.519-3.08,7.972,15.492,1.9,15.492,1.9l2.174-20.293Z" transform="translate(-272.298 -163.533)" fill="#d39999"/>
    <path id="Path_402" data-name="Path 402" d="M393.684,329.12l-2.265,2.446s-.091,7.972,2.174,8.788,3.714.453,4.439,1.087,4.62,1.812,4.62,1.812a35.091,35.091,0,0,0,5.526.453c1.268-.181-7.429-7.157-1.721-13.046Z" transform="translate(-272.31 -220.601)" fill="#d39999"/>
    <path id="Path_403" data-name="Path 403" d="M581.552,222.12l3.171,3.533s1.359,8.425,1,9.6,1.9,21.652,1.9,21.652,2.174,8.878-2.718,10.056a8.554,8.554,0,0,0-1.178,1.268c-.181.362-4.077-.181-4.077-.181l-5.979-39.227Z" transform="translate(-388.518 -152.375)" fill="#d39999"/>
    <path id="Path_404" data-name="Path 404" d="M448.683,286.593s11.868-7.066,14.042-7.429S478.4,272.37,478.4,272.37s6.7,3.443,7.338,6.07-2.808,13.136-2.808,13.136-11.052,7.7-11.687,9.331-10.146,6.432-10.146,7.248-15.039,9.694-21.652,1.9S432.92,300,432.92,300l16.76-3.9,1.631-7.247Z" transform="translate(-298.772 -184.415)" opacity="0.1"/>
    <path id="Path_405" data-name="Path 405" d="M448.683,284.593s11.868-7.066,14.042-7.429S478.4,270.37,478.4,270.37s6.7,3.443,7.338,6.07-2.808,13.136-2.808,13.136-11.052,7.7-11.687,9.331-10.146,6.432-10.146,7.247-15.039,9.693-21.652,1.9S432.92,298,432.92,298l16.76-3.9,1.631-7.247Z" transform="translate(-298.772 -183.14)" fill="#c4c8e2"/>
    <path id="Path_406" data-name="Path 406" d="M402.447,312.168l-.544,4.53-4.309-.315-4.207-.312s-2.446,0-3.986-3.624,3.443-4.167,3.714-3.624c.207.409,5.436,2.116,7.972,2.924Z" transform="translate(-270.836 -207.544)" fill="#fdc2cc"/>
    <path id="Path_407" data-name="Path 407" d="M417.382,317.63l-.544,4.53-4.309-.315c.7-1.044,2.174-2.953,3.5-4.635Z" transform="translate(-285.771 -213.006)" opacity="0.1"/>
    <path id="Path_408" data-name="Path 408" d="M424.42,319.62s4.914,1.134,8.306,2.374a13.717,13.717,0,0,1-3.323,3.736c-1.859.051-3.493-.185-3.9-.855C424.42,323.063,424.42,319.62,424.42,319.62Z" transform="translate(-293.353 -214.543)" opacity="0.1"/>
    <path id="Path_409" data-name="Path 409" d="M448.374,329.811l-.08-.627s-.036-.134-.069-.337a2.244,2.244,0,0,1,.192-1.533c.178-.25.138-.428.022-.554a5.444,5.444,0,0,1,2.537,1.489C451.287,328.858,450.073,329.431,448.374,329.811Z" transform="translate(-308.501 -219.096)" opacity="0.1"/>
    <path id="Path_410" data-name="Path 410" d="M424.373,307.118s-4.921,4.925-5.225,5.979-9.6,1.087-9.6,1.087l-.634-5.073s-.036-.134-.069-.337a2.244,2.244,0,0,1,.192-1.533c.453-.634-.515-.815-.515-.815s-2.508,4.135-4.62,4.258c0,0-2.928,2.113-2.9,2.537a4.65,4.65,0,0,0-1.449,2.866c-.029,1.569-1.841,2.207-3.171,1.754s-4.62-1.421-5.678-1.268-4.407,1.145-4.287-1.964c0,0,4.349-3.261,5.436-3.171s3.624-1.178,3.986-2.174,6.523-8.606,6.523-8.606,3.9-3.685,5.465-4.048c0,0,3.142-2.446,7.882,1.268,0,0,6.555,4.044,6.766,4.588.167.428,2.069,2.254,2.229,3.624A1.12,1.12,0,0,1,424.373,307.118Z" transform="translate(-269.117 -199.367)" fill="#fdc2cc"/>
    <path id="Path_411" data-name="Path 411" d="M447.9,307.12a15.239,15.239,0,0,1,.243,3.776c-.239,1-.725,2.718-.725,2.718S450.348,309.022,447.9,307.12Z" transform="translate(-308.018 -206.573)" opacity="0.1"/>
    <path id="Path_412" data-name="Path 412" d="M449.33,323.488s1.511-1.663,1.844-1.239S449.33,323.488,449.33,323.488Z" transform="translate(-309.236 -216.175)" opacity="0.1"/>
    <path id="Path_413" data-name="Path 413" d="M582.749,260.375a10.6,10.6,0,0,1-7.7,10.2,10.429,10.429,0,0,1-2.852.406h-.054a10.6,10.6,0,0,1-10.6-10.6,10.1,10.1,0,0,1,.167-1.855,10.581,10.581,0,0,1,9.661-8.7c.254-.022.511-.033.768-.033A10.6,10.6,0,0,1,582.749,260.375Z" transform="translate(-380.79 -170.018)" fill="#f8bdc5"/>
    <path id="Path_414" data-name="Path 414" d="M605.311,256.086a3.73,3.73,0,0,1,.863,2.2,4.164,4.164,0,0,0-4.465,3.16q-.5,1.163-.986,2.326a11.471,11.471,0,0,1-1.939,3.421,6.694,6.694,0,0,0-1.007,1.167c-.25.453-.362,1.026-.768,1.33a1.449,1.449,0,0,1-1.37.076c-.446-.167-.844-.446-1.29-.623a4.106,4.106,0,0,0-.888-.232h0c-1.326-.2-2.787.091-3.914-.623a2.338,2.338,0,0,1-.362-.3,3.509,3.509,0,0,1-.924-1.565,1.764,1.764,0,0,1-.087-.75,1.62,1.62,0,0,1,.841-1.087c.062-.036.123-.072.188-.105,1.087-.569,2.6-.7,3.167-1.812.544-1.051-.13-2.33-.957-3.178-.391-.4-.855-.852-.8-1.41.051-.493.489-.837.855-1.167a6.348,6.348,0,0,0,1.986-3.562,2.707,2.707,0,0,0-.022-1.286,3.412,3.412,0,0,0-.46-.844L591.8,249.48a4.773,4.773,0,0,0-1.449-1.536c-.489-.294-1.051-.395-1.544-.685a1.225,1.225,0,0,1-.457-.435.467.467,0,0,1-.058-.341c.062-.29.362-.431.663-.515a6.462,6.462,0,0,1,2.4-.228,1.862,1.862,0,0,0,.776,0,.547.547,0,0,0,.4-.591c.891-.232,1.736.464,2.388,1.116s1.449,1.366,2.37,1.181c.33-.065.634-.254.968-.29s.746.181.725.518-.442.554-.406.881a.649.649,0,0,0,.149.3,7.66,7.66,0,0,0,1.475,1.529c0-.641,0-1.286,0-1.928.725.181.989,1.109.906,1.859a6.652,6.652,0,0,0-.188,2.239.823.823,0,0,0,.435.591,1.087,1.087,0,0,0,.569,0c1.663-.236,3.606.207,4.432,1.667l-1.449-.525,1.685.92a1.773,1.773,0,0,1,.6.453.6.6,0,0,1,.044.7A2.251,2.251,0,0,0,605.311,256.086Z" transform="translate(-397.761 -167.03)" fill="#585268"/>
    <g id="Group_3" data-name="Group 3" transform="translate(190.481 77.994)" opacity="0.1">
      <path id="Path_415" data-name="Path 415" d="M626.625,266.977a1.087,1.087,0,0,0,.569,0c.163-.022.326-.036.493-.047a5.841,5.841,0,0,0-1.087.033Z" transform="translate(-612.748 -258.933)"/>
      <path id="Path_416" data-name="Path 416" d="M636.43,270.26l.623.344-.116-.163Z" transform="translate(-619.016 -261.064)"/>
      <path id="Path_417" data-name="Path 417" d="M622.255,256.068V254.8a1.116,1.116,0,0,0-.725-.66v1.276A7.8,7.8,0,0,0,622.255,256.068Z" transform="translate(-609.516 -250.785)"/>
      <path id="Path_418" data-name="Path 418" d="M638.43,275.017a2.248,2.248,0,0,1,.891.362.449.449,0,0,0,.091-.294A2.306,2.306,0,0,0,638.43,275.017Z" transform="translate(-620.292 -264.082)"/>
      <path id="Path_419" data-name="Path 419" d="M596.574,270.693c-.446-.167-.844-.446-1.29-.623a4.106,4.106,0,0,0-.888-.232h0c-1.326-.2-2.787.091-3.914-.623a2.331,2.331,0,0,1-.362-.3,3.508,3.508,0,0,1-.924-1.565,1.762,1.762,0,0,1-.087-.75,1.62,1.62,0,0,1,.841-1.087c.062-.036.123-.073.188-.105,1.105-.569,2.6-.7,3.167-1.812.544-1.051-.13-2.33-.957-3.178-.391-.4-.855-.852-.8-1.41.051-.493.489-.837.855-1.167a6.349,6.349,0,0,0,1.986-3.562,2.707,2.707,0,0,0-.022-1.286,3.414,3.414,0,0,0-.46-.844l-1.174-1.739a4.773,4.773,0,0,0-1.449-1.536c-.489-.294-1.051-.395-1.544-.685a1.225,1.225,0,0,1-.457-.435.467.467,0,0,1-.058-.341c.062-.29.38-.431.663-.515a6.7,6.7,0,0,1,1.449-.239,6.522,6.522,0,0,0-2.174.239c-.283.083-.6.225-.663.515a.468.468,0,0,0,.058.341,1.226,1.226,0,0,0,.457.435c.493.29,1.054.391,1.544.685a4.773,4.773,0,0,1,1.45,1.536l1.174,1.739a3.41,3.41,0,0,1,.46.844,2.708,2.708,0,0,1,.022,1.286,6.349,6.349,0,0,1-1.986,3.562c-.362.33-.8.674-.855,1.167-.054.558.409,1.011.8,1.41.826.848,1.5,2.127.957,3.178-.569,1.105-2.062,1.239-3.167,1.812-.065.033-.127.069-.188.105a1.619,1.619,0,0,0-.841,1.087,1.76,1.76,0,0,0,.087.75,3.507,3.507,0,0,0,.924,1.565,2.339,2.339,0,0,0,.362.3c1.127.725,2.587.428,3.914.623h0a4.105,4.105,0,0,1,.888.232c.446.178.844.457,1.29.623a1.711,1.711,0,0,0,1.022.087,2.143,2.143,0,0,1-.3-.087Z" transform="translate(-588.375 -246.009)"/>
      <path id="Path_420" data-name="Path 420" d="M614.333,250.824a5.328,5.328,0,0,0,.656-.214.779.779,0,0,0-.413-.076,7.635,7.635,0,0,0-.906.275A1.511,1.511,0,0,0,614.333,250.824Z" transform="translate(-604.504 -248.484)"/>
      <path id="Path_421" data-name="Path 421" d="M599.075,245.534a1.862,1.862,0,0,0,.775-.018.547.547,0,0,0,.4-.587,1.449,1.449,0,0,0-.725,0,.547.547,0,0,1-.4.591.575.575,0,0,1-.076.018Z" transform="translate(-595.182 -244.883)"/>
    </g>
    <path id="Path_422" data-name="Path 422" d="M540.426,254.885a10.977,10.977,0,0,1-5.49,1.594,29.489,29.489,0,0,1-4.657,0l-3.49-1.312s.283-.562.761-1.3c.953-1.479,2.685-3.678,4.494-3.588,2.718.134,5.573.268,5.845.268S543.459,252.62,540.426,254.885Z" transform="translate(-358.626 -170.325)" fill="#fdc2cc"/>
    <path id="Path_423" data-name="Path 423" d="M486.327,62.8c-2.58-.047-5.244-.076-7.61.917-4.758,1.968-7,7.226-9.878,11.466a32.792,32.792,0,0,1-8.969,8.882c-1.667,1.087-3.6,2.283-4,4.24-.428,2.069,1.051,3.986,1.812,5.947,1.613,4.171,0,8.791-.953,13.161a42.716,42.716,0,0,0-.859,6.371,8.841,8.841,0,0,0,.192,2.964c.725,2.558,3.464,4.406,3.486,7.066,0,1.812-1.276,3.522-.9,5.283.482,2.25,3.214,3.062,5.479,3.45a2.8,2.8,0,0,0,1.649-.051c.362-.174.659-.507,1.029-.692,1.257-.623,2.653.692,4.059.667,1.765-.033,2.758-2.116,2.8-3.881s-.428-3.624.207-5.254c.844-2.174,3.261-3.207,5.3-4.348,2.258-1.265,4.406-3.091,5.073-5.588a13.073,13.073,0,0,0,.062-4.765c-.254-2.435-.453-4.881-.591-7.324a10.322,10.322,0,0,1,11.038-10.94h.116c1.812.149,3.95.323,5.229-1,.507-.525.83-1.25,1.45-1.613,1.21-.689,2.874.294,4.091-.384a2.794,2.794,0,0,0,1.007-2.9,10.231,10.231,0,0,1-.326-3.24c.29-1.511,1.663-2.591,2.174-4.044a6.048,6.048,0,0,0-.96-5.008,20.156,20.156,0,0,0-14.459-9.106C490.828,62.86,488.578,62.834,486.327,62.8Z" transform="translate(-313.355 -50.776)" fill="#865a61"/>
    <path id="Path_424" data-name="Path 424" d="M527.551,260.15a36.53,36.53,0,0,1,7.385,2.624,29.489,29.489,0,0,1-4.656,0l-3.49-1.312A15.132,15.132,0,0,1,527.551,260.15Z" transform="translate(-358.626 -176.624)" opacity="0.1"/>
    <path id="Path_425" data-name="Path 425" d="M576.494,287.255c-1.326-.2-2.787.091-3.914-.623a2.341,2.341,0,0,1-.362-.3h-.054a10.6,10.6,0,0,1-10.614-10.6,10.094,10.094,0,0,1,.167-1.855c3.714,2.076,6.726,4.211,7.305,5.254a21.572,21.572,0,0,0,3.008,3.794c1.011,1.087,2.095,2.131,3.022,3C575.6,286.444,576.1,286.9,576.494,287.255Z" transform="translate(-380.79 -185.378)" opacity="0.1"/>
    <path id="Path_426" data-name="Path 426" d="M546.845,279.89s-6.613-5.707-8.425-8.969-27.269-17.122-24.007-6.613,14.5,11.505,14.5,11.505,3.624,4.077,3.986,6.07a28.369,28.369,0,0,0,1.631,4.892l6.07,2.718,2.808-.634S550.016,285.235,546.845,279.89Z" transform="translate(-350.551 -176.806)" fill="#fdc2cc"/>
    <path id="Path_427" data-name="Path 427" d="M569.42,317.773s10.69,6.07,11.777-8.153l2.718.906-2.718,9.6-4.62,3.352S570.145,320.491,569.42,317.773Z" transform="translate(-385.808 -208.167)" opacity="0.1"/>
    <path id="Path_428" data-name="Path 428" d="M570.42,318.773s10.69,6.07,11.777-8.153l2.718.906-2.718,9.6-4.62,3.352S571.145,321.491,570.42,318.773Z" transform="translate(-386.446 -208.805)" fill="#d39999"/>
    <path id="Path_429" data-name="Path 429" d="M559.435,114.923a32.777,32.777,0,0,1,.913-3.722,9.833,9.833,0,0,0,.109-3.682,5.346,5.346,0,0,0-.957-2.45c-.362-.453-1.45-1.449-2.084-1-.362.257-.46,1.747-.605,2.174a18.772,18.772,0,0,1-2.029,4.077,16.575,16.575,0,0,1-13.408,26.3c-.4,0-.786-.018-1.174-.047-.362.631-.692,1.268-1.026,1.906a5.92,5.92,0,0,0-.783,2.113,5.5,5.5,0,0,0,.323,2.1,29.641,29.641,0,0,0,2.776,6.338,9.584,9.584,0,0,1,1,1.982c.207.67.243,1.388.511,2.033.6,1.45,2.174,2.174,3.624,2.779a5.92,5.92,0,0,0,2.707.649.63.63,0,0,0,.678-.641,2.453,2.453,0,0,0-.725-2.084,10.4,10.4,0,0,0,3.8.453.612.612,0,0,0,.659-.9,16.305,16.305,0,0,0-1.515-3.921c-.659-1.218-1.5-2.634-.9-3.877a4.3,4.3,0,0,1,1.729-1.562c2.229-1.45,4.2-3.812,4.03-6.468-.094-1.449-.826-2.83-.87-4.291-.112-3.562,3.722-6.11,4.3-9.628C560.982,120.681,559.155,117.833,559.435,114.923Z" transform="translate(-366.021 -77.03)" fill="#865a61"/>
    <g id="Group_4" data-name="Group 4" transform="translate(142.263 24.289)" opacity="0.1">
      <path id="Path_430" data-name="Path 430" d="M459.055,212.592c-.022-2.66-2.758-4.508-3.486-7.066a5.946,5.946,0,0,1-.207-1.236,8.136,8.136,0,0,0,.207,2.685c.667,2.337,3,4.084,3.417,6.4a4.354,4.354,0,0,0,.069-.783Z" transform="translate(-455.325 -165.295)"/>
      <path id="Path_431" data-name="Path 431" d="M475.226,244.9c-1.406.025-2.8-1.29-4.059-.667-.362.185-.652.518-1.029.692a2.8,2.8,0,0,1-1.649.051c-2.258-.388-4.983-1.2-5.472-3.428a3.711,3.711,0,0,0,0,1.428c.482,2.25,3.214,3.062,5.479,3.45a2.8,2.8,0,0,0,1.649-.051c.362-.174.66-.507,1.029-.692,1.257-.623,2.653.692,4.059.667,1.765-.033,2.758-2.116,2.8-3.881,0-.362,0-.725-.025-1.087C477.825,243.054,476.868,244.866,475.226,244.9Z" transform="translate(-460.183 -188.944)"/>
      <path id="Path_432" data-name="Path 432" d="M514.907,195.9c-.674,2.5-2.823,4.323-5.073,5.588-2.04,1.145-4.457,2.174-5.3,4.349a6.933,6.933,0,0,0-.312,2.917,5.132,5.132,0,0,1,.312-1.468c.844-2.174,3.261-3.207,5.3-4.349,2.258-1.265,4.406-3.091,5.073-5.588a9.16,9.16,0,0,0,.228-2.9A7.455,7.455,0,0,1,514.907,195.9Z" transform="translate(-486.474 -159.021)"/>
      <path id="Path_433" data-name="Path 433" d="M552.659,127.113a4.465,4.465,0,0,0-2.536.152c-.634.362-.957,1.087-1.449,1.613-1.279,1.319-3.4,1.145-5.229,1h-.116a10.328,10.328,0,0,0-11.038,10.94v.145a10.317,10.317,0,0,1,11.031-9.636h.116c1.812.149,3.95.323,5.229-1,.507-.525.83-1.25,1.449-1.613a4.44,4.44,0,0,1,2.537-.152A16.517,16.517,0,0,1,553.829,134c0-.236.018-.471.018-.725a16.555,16.555,0,0,0-1.189-6.161Z" transform="translate(-504.385 -116.017)"/>
      <path id="Path_434" data-name="Path 434" d="M457.858,142.455a11.193,11.193,0,0,0-.663-4.638c-.573-1.482-1.555-2.935-1.812-4.446-.4,2.047,1.065,3.943,1.812,5.9A10.391,10.391,0,0,1,457.858,142.455Z" transform="translate(-455.316 -120.074)"/>
      <path id="Path_435" data-name="Path 435" d="M597.029,116.12a9.406,9.406,0,0,1-.2,1.388,32.777,32.777,0,0,0-.913,3.722,7.126,7.126,0,0,0,0,1.363,34.781,34.781,0,0,1,.9-3.624A9.821,9.821,0,0,0,597.029,116.12Z" transform="translate(-544.943 -109.075)"/>
      <path id="Path_436" data-name="Path 436" d="M591.357,153.515c-.58,3.519-4.414,6.066-4.3,9.628a5,5,0,0,0,.051.576c.457-3.12,3.722-5.53,4.251-8.755a6.706,6.706,0,0,0,.036-1.765A2.349,2.349,0,0,1,591.357,153.515Z" transform="translate(-539.315 -132.719)"/>
      <path id="Path_437" data-name="Path 437" d="M598.455,97.35a10.144,10.144,0,0,1-1.3,2.174,5.031,5.031,0,0,1,.362.913,7.2,7.2,0,0,0,.931-1.656,4.348,4.348,0,0,0,.167-2.1,3.837,3.837,0,0,1-.156.67Z" transform="translate(-545.753 -96.68)"/>
      <path id="Path_438" data-name="Path 438" d="M578.919,195.39c-.323,2.218-2.058,4.149-3.986,5.414a4.4,4.4,0,0,0-1.729,1.562,2.4,2.4,0,0,0-.1,1.7,1.581,1.581,0,0,1,.1-.246,4.3,4.3,0,0,1,1.729-1.562c2.229-1.45,4.2-3.812,4.03-6.468C578.955,195.651,578.937,195.52,578.919,195.39Z" transform="translate(-530.352 -159.62)"/>
      <path id="Path_439" data-name="Path 439" d="M549.265,218.71a.775.775,0,0,1-.467.159,5.874,5.874,0,0,1-2.707-.649c-1.449-.6-3.029-1.334-3.624-2.779-.268-.645-.3-1.363-.511-2.033a9.589,9.589,0,0,0-1-1.982,29.649,29.649,0,0,1-2.776-6.338,9.766,9.766,0,0,1-.261-1.018c-.025.12-.047.243-.062.362a5.5,5.5,0,0,0,.322,2.1,29.653,29.653,0,0,0,2.776,6.338,9.589,9.589,0,0,1,1,1.982c.206.67.243,1.388.511,2.033.6,1.449,2.174,2.174,3.624,2.779a5.92,5.92,0,0,0,2.707.649.631.631,0,0,0,.678-.641,2.4,2.4,0,0,0-.109-1.087A.439.439,0,0,1,549.265,218.71Z" transform="translate(-507.946 -165.155)"/>
      <path id="Path_440" data-name="Path 440" d="M572.19,237.731a1.155,1.155,0,0,1-.475.112,10.4,10.4,0,0,1-3.8-.453,2.446,2.446,0,0,1,.743,1.649,10.36,10.36,0,0,0,3.062.254.612.612,0,0,0,.66-.9C572.32,238.169,572.255,237.948,572.19,237.731Z" transform="translate(-527.109 -186.4)"/>
    </g>
    <path id="Path_441" data-name="Path 441" d="M440.068,260.37s-.362,7.429.725,7.972S440.068,260.37,440.068,260.37Z" transform="translate(-303.293 -176.764)" opacity="0.1"/>
    <path id="Path_442" data-name="Path 442" d="M496.92,314.37c.362,0,1.812.725,1.993,1.54S496.92,314.37,496.92,314.37Z" transform="translate(-339.58 -211.196)" opacity="0.1"/>
    <path id="Path_443" data-name="Path 443" d="M494.42,317.62c.362,0,1.812.725,1.993,1.54S494.42,317.62,494.42,317.62Z" transform="translate(-337.986 -213.268)" opacity="0.1"/>
    <path id="Path_444" data-name="Path 444" d="M503.67,326.62c.362,0,1.812.725,1.993,1.54S503.67,326.62,503.67,326.62Z" transform="translate(-343.884 -219.006)" opacity="0.1"/>
    <path id="Path_445" data-name="Path 445" d="M463.841,324.851s-4.921,4.925-5.225,5.979-9.6,1.087-9.6,1.087l-.634-5.073s-.036-.134-.069-.337c2.569-.659,10.9-3.736,15.858-2.645A1.12,1.12,0,0,1,463.841,324.851Z" transform="translate(-308.586 -217.1)" opacity="0.1"/>
    <path id="Path_446" data-name="Path 446" d="M427.335,331.693s4.744-4.2,6.193-4.106,19.115-7.429,20.293,1-22.558,8.878-22.558,8.878l-3.624,1.359S424.617,332.236,427.335,331.693Z" transform="translate(-294.488 -217.709)" fill="#fdc2cc"/>
    <path id="Path_447" data-name="Path 447" d="M424.862,343.821s2.174-3.019,2.837.663,1.663,8.215,1.663,8.215l-4.863-2.417Z" transform="translate(-293.404 -229.231)" fill="#d39999"/>
    <ellipse id="Ellipse_60" data-name="Ellipse 60" cx="16.231" cy="2.49" rx="16.231" ry="2.49" transform="translate(316.567 238.297)" fill="#0080ff" opacity="0.1"/>
    <ellipse id="Ellipse_61" data-name="Ellipse 61" cx="25.366" cy="3.892" rx="25.366" ry="3.892" transform="translate(261.617 281.843)" fill="#0080ff" opacity="0.1"/>
    <ellipse id="Ellipse_62" data-name="Ellipse 62" cx="33.552" cy="5.149" rx="33.552" ry="5.149" transform="translate(322.282 294.356)" fill="#0080ff" opacity="0.1"/>
    <ellipse id="Ellipse_63" data-name="Ellipse 63" cx="25.366" cy="3.892" rx="25.366" ry="3.892" transform="translate(0 241.986)" fill="#0080ff" opacity="0.1"/>
    <path id="Path_448" data-name="Path 448" d="M945.4,628.21s-2.294,10.69,7.918,11.958l.634-1.189S946.036,631.537,945.4,628.21Z" transform="translate(-625.403 -411.308)" fill="#0080ff"/>
    <path id="Path_449" data-name="Path 449" d="M962.746,629.421l-2.374.5-.239.054s-6.334-5.146-6.255-16.629a28.843,28.843,0,0,0,3.026,4.791C959.416,621.46,962.257,625.906,962.746,629.421Z" transform="translate(-630.948 -401.833)" fill="#0080ff"/>
    <path id="Path_450" data-name="Path 450" d="M970.626,623.56a1.486,1.486,0,0,1-1.279.167c-6.1-1.424-4.037-21.3-4.037-21.3.337.159.725,2.685,2.109,5.95C969.879,614.113,972.593,622.121,970.626,623.56Z" transform="translate(-638.023 -394.87)" fill="#0080ff"/>
    <path id="Path_451" data-name="Path 451" d="M999.5,628.21s.4,10.69-9.817,11.958l-.634-1.189S998.87,631.537,999.5,628.21Z" transform="translate(-653.375 -411.308)" fill="#0080ff"/>
    <path id="Path_452" data-name="Path 452" d="M990.866,613.35a19.789,19.789,0,0,1-8.153,16.629l-.239-.054-2.374-.5c.468-3.526,3.33-7.972,5.838-11.281A25.7,25.7,0,0,1,990.866,613.35Z" transform="translate(-647.668 -401.833)" fill="#0080ff"/>
    <path id="Path_453" data-name="Path 453" d="M979.858,622.52a3.764,3.764,0,0,1-1.359,1.04h0a2.426,2.426,0,0,1-.5.167c-1.5.362-2.026-.725-1.939-2.569.141-3.261,2.2-8.951,4.048-13.2a16.462,16.462,0,0,1,3.827-5.53C983.931,602.43,983.84,617.9,979.858,622.52Z" transform="translate(-645.089 -394.87)" fill="#0080ff"/>
    <path id="Path_454" data-name="Path 454" d="M975.984,583.2s-6.809,24.149-.949,27.791S977.491,585.338,975.984,583.2Z" transform="translate(-642.921 -382.608)" fill="#0080ff"/>
    <path id="Path_455" data-name="Path 455" d="M945.4,628.21s-2.294,10.69,7.918,11.958l.634-1.189S946.036,631.537,945.4,628.21Z" transform="translate(-625.403 -411.308)" opacity="0.1"/>
    <path id="Path_456" data-name="Path 456" d="M962.746,629.421l-2.374.5-.239.054s-6.334-5.146-6.255-16.629a28.843,28.843,0,0,0,3.026,4.791C959.416,621.46,962.257,625.906,962.746,629.421Z" transform="translate(-630.948 -401.833)" opacity="0.1"/>
    <path id="Path_457" data-name="Path 457" d="M970.626,623.56a1.486,1.486,0,0,1-1.279.167c-6.1-1.424-4.037-21.3-4.037-21.3.337.159.725,2.685,2.109,5.95C969.879,614.113,972.593,622.121,970.626,623.56Z" transform="translate(-638.023 -394.87)" opacity="0.1"/>
    <path id="Path_458" data-name="Path 458" d="M999.5,628.21s.4,10.69-9.817,11.958l-.634-1.189S998.87,631.537,999.5,628.21Z" transform="translate(-653.375 -411.308)" opacity="0.1"/>
    <path id="Path_459" data-name="Path 459" d="M990.866,613.35a19.789,19.789,0,0,1-8.153,16.629l-.239-.054-2.374-.5c.468-3.526,3.33-7.972,5.838-11.281A25.7,25.7,0,0,1,990.866,613.35Z" transform="translate(-647.668 -401.833)" opacity="0.1"/>
    <path id="Path_460" data-name="Path 460" d="M979.858,622.52a3.764,3.764,0,0,1-1.359,1.04h0a2.426,2.426,0,0,1-.5.167c-1.5.362-2.026-.725-1.939-2.569.141-3.261,2.2-8.951,4.048-13.2a16.462,16.462,0,0,1,3.827-5.53C983.931,602.43,983.84,617.9,979.858,622.52Z" transform="translate(-645.089 -394.87)" opacity="0.1"/>
    <path id="Path_461" data-name="Path 461" d="M975.984,583.2s-6.809,24.149-.949,27.791S977.491,585.338,975.984,583.2Z" transform="translate(-642.921 -382.608)" opacity="0.1"/>
    <path id="Path_462" data-name="Path 462" d="M945.687,628.21s-1.344,10.69,8.867,11.958l.634-1.189S946.321,631.537,945.687,628.21Z" transform="translate(-625.688 -411.308)" fill="#0080ff"/>
    <path id="Path_463" data-name="Path 463" d="M963.726,629.421l-2.374.5-.239.054s-7.284-5.146-7.2-16.629c0,0,1.866,2,3.986,4.791C960.388,621.46,963.24,625.906,963.726,629.421Z" transform="translate(-630.968 -401.833)" fill="#0080ff"/>
    <path id="Path_464" data-name="Path 464" d="M970.721,637.851l-2.374.5c-2.25-1.975-3.145-7.135-3.468-11.784C967.384,629.889,970.236,634.336,970.721,637.851Z" transform="translate(-637.963 -410.262)" opacity="0.1"/>
    <path id="Path_465" data-name="Path 465" d="M972.026,623.56a1.486,1.486,0,0,1-1.279.167c-6.1-1.424-4.986-21.3-4.986-21.3.337.159,1.656,2.685,3.058,5.95C971.279,614.113,973.982,622.121,972.026,623.56Z" transform="translate(-638.474 -394.87)" fill="#0080ff"/>
    <path id="Path_466" data-name="Path 466" d="M1001.178,628.21s1.348,10.69-8.867,11.958l-.631-1.189S1000.547,631.537,1001.178,628.21Z" transform="translate(-655.052 -411.308)" fill="#0080ff"/>
    <path id="Path_467" data-name="Path 467" d="M992.537,613.35c.076,11.484-7.2,16.629-7.2,16.629l-.239-.054-2.374-.5c.471-3.526,3.33-7.972,5.838-11.281C990.671,615.35,992.537,613.35,992.537,613.35Z" transform="translate(-649.339 -401.833)" fill="#0080ff"/>
    <path id="Path_468" data-name="Path 468" d="M988.558,626.57c-.3,4.349-1.087,9.11-3.026,11.342a3.633,3.633,0,0,1-.439.442l-2.374-.5C983.184,634.336,986.05,629.889,988.558,626.57Z" transform="translate(-649.339 -410.262)" opacity="0.1"/>
    <path id="Path_469" data-name="Path 469" d="M982.472,622.52a3.736,3.736,0,0,1-1.359,1.04h0a2.536,2.536,0,0,1-.5.167c-1.5.362-2.026-.725-1.939-2.569.141-3.261,2.2-8.951,4.048-13.2,1.33-3.059,2.537-5.378,2.877-5.53C985.6,602.43,986.458,617.9,982.472,622.52Z" transform="translate(-646.753 -394.87)" fill="#0080ff"/>
    <path id="Path_470" data-name="Path 470" d="M976.911,634.055a1.671,1.671,0,0,1-.964-.308c-2.87-1.786-2.928-8.494-2.243-14.857C976.164,624.608,978.868,632.617,976.911,634.055Z" transform="translate(-643.359 -405.365)" opacity="0.1"/>
    <path id="Path_471" data-name="Path 471" d="M982.488,632.25c-.33.725-.776,1.087-1.359,1.04h0a1.9,1.9,0,0,1-.819-.308,4.348,4.348,0,0,1-1.62-2.095c.141-3.261,2.2-8.951,4.048-13.2C983.394,623.6,983.611,629.833,982.488,632.25Z" transform="translate(-646.769 -404.6)" opacity="0.1"/>
    <path id="Path_472" data-name="Path 472" d="M977.26,583.2s-5.856,24.149,0,27.791S978.768,585.338,977.26,583.2Z" transform="translate(-644.198 -382.608)" fill="#0080ff"/>
    <path id="Path_473" data-name="Path 473" d="M907.234,626.99H882.85v4.037h3.718l.094.475,1.489,7.838h14.176l1.489-7.838.091-.475h3.327Z" transform="translate(-562.927 -399.793)" fill="#4b4770"/>
    <path id="Path_474" data-name="Path 474" d="M907.234,626.99H882.85v4.037h3.718l.094.475,1.489,7.838h14.176l1.489-7.838.091-.475h3.327Z" transform="translate(-562.927 -399.793)" opacity="0.1"/>
    <path id="Path_475" data-name="Path 475" d="M912.834,633.54l-.406,2.138-1.493,7.838H896.759l-1.489-7.838-.409-2.138Z" transform="translate(-570.585 -403.969)" fill="#4b4770"/>
    <path id="Path_476" data-name="Path 476" d="M912.834,633.54l-.406,2.138H895.269l-.409-2.138Z" transform="translate(-570.585 -403.969)" opacity="0.1"/>
    <rect id="Rectangle_32" data-name="Rectangle 32" width="24.384" height="4.037" transform="translate(320.872 227.197)" fill="#4b4770"/>
    <path id="Path_477" data-name="Path 477" d="M132.1,586.058a6.225,6.225,0,0,0-.826,1.555c-.051.134-.1.29-.152.439a1.34,1.34,0,0,0-.286-.1,4.005,4.005,0,0,0-1.294-.112c0-.167.022-.362.025-.533.054-1.91-.17-4.57-1.993-3.443-1.747,1.087-.5,2.9.627,4.059.1.1.2.2.29.286-1.029.725-1.225,2.439-1.4,4.218s-1.681,3.725-2.685,4.834c-.1.112-.192.214-.283.308a3.66,3.66,0,0,0-2.9-.75c-.04-.156-.083-.319-.134-.493-.83-2.946-2.511-8.019-4.664-9.107.091-.112.185-.228.283-.362.913-1.2,1.942-2.971.424-3.424s-1.656,1.54-1.573,3.033c0,.185.029.362.043.529a2.225,2.225,0,0,0-1.584.768l-.236-.279c-1.232-1.45-3.49-3.754-4.175-2.011-.634,1.62,1.352,3.729,2.75,4.95l.087.076c-.939,3.812,3.16,6.918,5.367,8.273l.286.178c-3.044,3.584-4.925,10.31-4.925,10.31l8.527,1.522s5.649-4.878,4.925-9.454h.058c5.649-1.134,6.932-7.157,6.055-10.73l.1-.043a6.414,6.414,0,0,0,2.616-1.975C137.037,586.381,133.725,583.9,132.1,586.058Z" transform="translate(-92.548 -382.716)" fill="#0080ff"/>
    <path id="Path_478" data-name="Path 478" d="M132.1,586.058a6.225,6.225,0,0,0-.826,1.555c-.051.134-.1.29-.152.439a1.34,1.34,0,0,0-.286-.1,4.005,4.005,0,0,0-1.294-.112c0-.167.022-.362.025-.533.054-1.91-.17-4.57-1.993-3.443-1.747,1.087-.5,2.9.627,4.059.1.1.2.2.29.286-1.029.725-1.225,2.439-1.4,4.218s-1.681,3.725-2.685,4.834c-.1.112-.192.214-.283.308a3.66,3.66,0,0,0-2.9-.75c-.04-.156-.083-.319-.134-.493-.83-2.946-2.511-8.019-4.664-9.107.091-.112.185-.228.283-.362.913-1.2,1.942-2.971.424-3.424s-1.656,1.54-1.573,3.033c0,.185.029.362.043.529a2.225,2.225,0,0,0-1.584.768l-.236-.279c-1.232-1.45-3.49-3.754-4.175-2.011-.634,1.62,1.352,3.729,2.75,4.95l.087.076c-.939,3.812,3.16,6.918,5.367,8.273l.286.178c-3.044,3.584-4.925,10.31-4.925,10.31l8.527,1.522s5.649-4.878,4.925-9.454h.058c5.649-1.134,6.932-7.157,6.055-10.73l.1-.043a6.414,6.414,0,0,0,2.616-1.975C137.037,586.381,133.725,583.9,132.1,586.058Z" transform="translate(-92.548 -382.716)" opacity="0.1"/>
    <path id="Path_479" data-name="Path 479" d="M116.047,591.088l-1,2.9s-.554-.391-1.254-1.007c-1.4-1.221-3.385-3.33-2.75-4.95.685-1.743,2.943.558,4.175,2.011C115.717,590.638,116.047,591.088,116.047,591.088Z" transform="translate(-93.46 -385.289)" fill="#0080ff"/>
    <path id="Path_480" data-name="Path 480" d="M128.807,586.864a14.111,14.111,0,0,1-.971,1.142,15.305,15.305,0,0,1-.178-1.533c-.083-1.493.076-3.475,1.573-3.033S129.721,585.661,128.807,586.864Z" transform="translate(-104.119 -382.721)" fill="#0080ff"/>
    <path id="Path_481" data-name="Path 481" d="M161.3,587.711c-.029.96-.123,1.729-.123,1.729a12.1,12.1,0,0,1-1.243-1.113c-1.127-1.167-2.374-2.971-.627-4.059C161.126,583.141,161.35,585.812,161.3,587.711Z" transform="translate(-123.754 -383.118)" fill="#0080ff"/>
    <path id="Path_482" data-name="Path 482" d="M174.367,591.841a6.415,6.415,0,0,1-2.616,1.975,7.042,7.042,0,0,1-.877.319l-1.174-1.649a11.974,11.974,0,0,1,.486-1.6,6.225,6.225,0,0,1,.826-1.555C172.635,587.174,175.947,589.652,174.367,591.841Z" transform="translate(-130.937 -385.988)" fill="#0080ff"/>
    <path id="Path_483" data-name="Path 483" d="M120.274,594.73c.5.58.826,1.029.826,1.029l-1,2.9s-.554-.391-1.254-1.007a5.689,5.689,0,0,1,1.123-2.562Z" transform="translate(-98.514 -389.96)" opacity="0.1"/>
    <path id="Path_484" data-name="Path 484" d="M128.839,592.311a14.115,14.115,0,0,1-.971,1.141,15.305,15.305,0,0,1-.178-1.533A1.978,1.978,0,0,1,128.839,592.311Z" transform="translate(-104.15 -388.168)" opacity="0.1"/>
    <path id="Path_485" data-name="Path 485" d="M128,604.782l-2.482,1.087s-.54-.261-1.319-.746c-2.605-1.6-7.842-5.635-4.349-10.389s6.439,3.772,7.61,7.943C127.813,603.927,128,604.782,128,604.782Z" transform="translate(-98.41 -389.069)" fill="#0080ff"/>
    <path id="Path_486" data-name="Path 486" d="M162.56,594.856a2.044,2.044,0,0,1,1.366-.616c-.029.96-.123,1.729-.123,1.729A12.109,12.109,0,0,1,162.56,594.856Z" transform="translate(-126.384 -389.648)" opacity="0.1"/>
    <path id="Path_487" data-name="Path 487" d="M171.751,598.012a7.013,7.013,0,0,1-.877.319l-1.174-1.649a11.971,11.971,0,0,1,.486-1.6A4.222,4.222,0,0,1,171.751,598.012Z" transform="translate(-130.937 -390.183)" opacity="0.1"/>
    <path id="Path_488" data-name="Path 488" d="M149.611,609.153l-.417.072c-8.309,1.261-2.74-3.222-2.74-3.222s.362-.362.881-.906c1-1.109,2.511-3.044,2.685-4.834.261-2.692.562-5.218,3.74-4.475C156.881,596.506,157.478,607.577,149.611,609.153Z" transform="translate(-114.95 -390.551)" fill="#0080ff"/>
    <rect id="Rectangle_33" data-name="Rectangle 33" width="15.876" height="4.175" transform="translate(18.63 239.29)" fill="#d4dfec"/>
    <rect id="Rectangle_34" data-name="Rectangle 34" width="20.742" height="14.567" transform="translate(16.108 225.719)" fill="#d4dfec"/>
    <rect id="Rectangle_35" data-name="Rectangle 35" width="15.876" height="4.175" transform="translate(18.63 239.29)" opacity="0.1"/>
    <rect id="Rectangle_36" data-name="Rectangle 36" width="20.742" height="14.567" transform="translate(16.108 225.719)" opacity="0.1"/>
    <rect id="Rectangle_37" data-name="Rectangle 37" width="15.876" height="4.175" transform="translate(19.673 239.29)" fill="#d4dfec"/>
    <path id="Path_489" data-name="Path 489" d="M137.161,619.13c.362,1.247.54,2.1.54,2.1l-2.482,1.087s-.54-.261-1.319-.747A6.384,6.384,0,0,1,137.161,619.13Z" transform="translate(-108.11 -405.518)" opacity="0.1"/>
    <path id="Path_490" data-name="Path 490" d="M149.611,625.765l-.417.072c-8.309,1.261-2.74-3.221-2.74-3.221s.362-.362.881-.906A5.5,5.5,0,0,1,149.611,625.765Z" transform="translate(-114.95 -407.163)" opacity="0.1"/>
    <path id="Path_491" data-name="Path 491" d="M121.1,632.809s4.653-16.669,11.179-11.523-2.653,13.045-2.653,13.045Z" transform="translate(-99.948 -406.264)" fill="#0080ff"/>
    <circle id="Ellipse_64" data-name="Ellipse 64" cx="0.522" cy="0.522" r="0.522" transform="translate(22.978 207.759)" opacity="0.1"/>
    <circle id="Ellipse_65" data-name="Ellipse 65" cx="0.522" cy="0.522" r="0.522" transform="translate(22.935 210.195)" opacity="0.1"/>
    <circle id="Ellipse_66" data-name="Ellipse 66" cx="0.522" cy="0.522" r="0.522" transform="translate(38.071 208.238)" opacity="0.1"/>
    <circle id="Ellipse_67" data-name="Ellipse 67" cx="0.522" cy="0.522" r="0.522" transform="translate(25.892 220.718)" opacity="0.1"/>
    <circle id="Ellipse_68" data-name="Ellipse 68" cx="0.522" cy="0.522" r="0.522" transform="translate(36.984 212.282)" opacity="0.1"/>
    <circle id="Ellipse_69" data-name="Ellipse 69" cx="0.522" cy="0.522" r="0.522" transform="translate(31.592 217.674)" opacity="0.1"/>
    <circle id="Ellipse_70" data-name="Ellipse 70" cx="0.522" cy="0.522" r="0.522" transform="translate(24.761 208.803)" opacity="0.1"/>
    <circle id="Ellipse_71" data-name="Ellipse 71" cx="0.522" cy="0.522" r="0.522" transform="translate(36.636 209.803)" opacity="0.1"/>
    <circle id="Ellipse_72" data-name="Ellipse 72" cx="0.522" cy="0.522" r="0.522" transform="translate(34.853 213.847)" opacity="0.1"/>
    <circle id="Ellipse_73" data-name="Ellipse 73" cx="0.522" cy="0.522" r="0.522" transform="translate(29.374 220.327)" opacity="0.1"/>
    <circle id="Ellipse_74" data-name="Ellipse 74" cx="0.522" cy="0.522" r="0.522" transform="translate(28.244 217.761)" opacity="0.1"/>
    <circle id="Ellipse_75" data-name="Ellipse 75" cx="0.522" cy="0.522" r="0.522" transform="translate(25.544 211.977)" opacity="0.1"/>
    <rect id="Rectangle_38" data-name="Rectangle 38" width="15.876" height="1.526" transform="translate(19.673 239.29)" opacity="0.1"/>
    <rect id="Rectangle_39" data-name="Rectangle 39" width="20.742" height="14.567" transform="translate(17.151 225.719)" fill="#d4dfec"/>
    <circle id="Ellipse_76" data-name="Ellipse 76" cx="0.522" cy="0.522" r="0.522" transform="translate(30.07 222.675)" opacity="0.1"/>
    <circle id="Ellipse_77" data-name="Ellipse 77" cx="0.522" cy="0.522" r="0.522" transform="translate(26.939 223.327)" opacity="0.1"/>
  </g>
</svg>
