<svg xmlns="http://www.w3.org/2000/svg" xmlns:xlink="http://www.w3.org/1999/xlink" width="471.837" height="287.882" viewBox="0 0 471.837 287.882">
  <defs>
    <linearGradient id="linear-gradient" x1="9.046" y1="1" x2="9.046" gradientUnits="objectBoundingBox">
      <stop offset="0" stop-color="gray" stop-opacity="0.251"/>
      <stop offset="0.54" stop-color="gray" stop-opacity="0.122"/>
      <stop offset="1" stop-color="gray" stop-opacity="0.102"/>
    </linearGradient>
  </defs>
  <g id="undraw_personal_settings_kihd" transform="translate(0)">
    <path id="Path_541" data-name="Path 541" d="M499.836,283.5a74.471,74.471,0,0,1-10.773,38.72c0,14.279-6.657,27.221-17.455,36.654a59.7,59.7,0,0,1-8.694,6.3c-.124.078-.252.153-.379.227-.231.136-.462.272-.7.412l-.219.128h0a67.892,67.892,0,0,1-33.449,8.579H117.57q-3.712,0-7.358-.3A87.086,87.086,0,0,1,85.028,368.4q-2.359-.932-4.628-2-1.081-.507-2.141-1.044c-.441-.223-.883-.454-1.32-.685a77.3,77.3,0,0,1-14.213-9.647C48.7,342.961,40.01,326.306,40.01,307.911A74.446,74.446,0,0,1,28,267.215c0-40.89,32.682-74.038,73-74.038,1.237,0,2.475.037,3.712.1a3.773,3.773,0,0,1,.528.025,125.781,125.781,0,0,1,26.809-31.6c29.795-25.53,73.341-41.624,121.848-41.624,40.758,0,78.014,11.363,106.551,30.137a71.84,71.84,0,0,1,35.45-9.3c40.312,0,73,33.148,73,74.038a76.277,76.277,0,0,1-.412,7.746A74.24,74.24,0,0,1,499.836,283.5Z" transform="translate(-28 -112.211)" fill="#0080ff" opacity="0.1"/>
    <g id="Group_5" data-name="Group 5" transform="translate(32.765 144.659)" opacity="0.2">
      <path id="Path_542" data-name="Path 542" d="M154.789,712.356a4.908,4.908,0,0,1-.041.557q-2.359-.932-4.628-2a3.753,3.753,0,0,1-2.141-1.044c-.441-.223-.883-.454-1.32-.685a5.644,5.644,0,0,1,.334-.6,3.837,3.837,0,0,1,6.983.214A6.958,6.958,0,0,1,154.789,712.356Z" transform="translate(-130.484 -601.387)" fill="#3f3d56"/>
      <path id="Path_543" data-name="Path 543" d="M154.331,695.236a6.962,6.962,0,0,1-1.035,3.5,4.152,4.152,0,0,1-3.564,2.136l-.293-.021a3.753,3.753,0,0,1-2.141-1.044,5.168,5.168,0,0,1-.986-1.287,7.238,7.238,0,0,1,.223-7.061,3.837,3.837,0,0,1,6.983.214A6.957,6.957,0,0,1,154.331,695.236Z" transform="translate(-129.803 -591.328)" fill="#3f3d56"/>
      <ellipse id="Ellipse_84" data-name="Ellipse 84" cx="5.778" cy="4.413" rx="5.778" ry="4.413" transform="translate(15.748 102.358) rotate(-88.19)" fill="#3f3d56"/>
      <ellipse id="Ellipse_85" data-name="Ellipse 85" cx="5.778" cy="4.413" rx="5.778" ry="4.413" transform="translate(15.968 95.297) rotate(-88.19)" fill="#3f3d56"/>
      <ellipse id="Ellipse_86" data-name="Ellipse 86" cx="5.778" cy="4.413" rx="5.778" ry="4.413" transform="translate(16.231 87.785) rotate(-88.282)" fill="#3f3d56"/>
      <path id="Path_544" data-name="Path 544" d="M113.227,485.48a20.481,20.481,0,0,1-1.567-2.475l11.656-1.538-12.547-.3A21.191,21.191,0,0,1,110.9,464.4l16.547,9.259-15.157-11.9a21.15,21.15,0,1,1,34.167,24.747,21.084,21.084,0,0,1,2.289,3.931l-15.3,7.346,16.221-4.879a21.175,21.175,0,0,1-4.05,19.76,21.15,21.15,0,1,1-33.227-1.048,21.15,21.15,0,0,1,.825-26.141Z" transform="translate(-107.44 -451.737)" fill="#0080ff"/>
      <path id="Path_545" data-name="Path 545" d="M150.565,567.64a21.06,21.06,0,0,1-4.949,12.926,21.15,21.15,0,1,1-33.227-1.048C109.68,575.835,150.64,565.264,150.565,567.64Z" transform="translate(-107.44 -519.634)" opacity="0.1"/>
    </g>
    <path id="Path_546" data-name="Path 546" d="M532.407,228.593V426.228a7.593,7.593,0,0,1-7.593,7.593H221.593a7.478,7.478,0,0,1-2.1-.3,7.581,7.581,0,0,1-5.5-7.3V252.577a3.773,3.773,0,0,1,.528.025A125.781,125.781,0,0,1,241.337,221H524.814A7.593,7.593,0,0,1,532.407,228.593Z" transform="translate(-137.286 -171.507)" fill="#fff"/>
    <rect id="Rectangle_52" data-name="Rectangle 52" width="56.847" height="14.831" rx="7.416" transform="translate(293.73 75.16)" fill="#3f3d56"/>
    <rect id="Rectangle_53" data-name="Rectangle 53" width="49.436" height="9.87" rx="4.935" transform="translate(297.434 77.639)" opacity="0.1"/>
    <rect id="Rectangle_54" data-name="Rectangle 54" width="17.851" height="8.789" rx="4.395" transform="translate(327.782 78.179)" fill="#0080ff"/>
    <circle id="Ellipse_87" data-name="Ellipse 87" cx="2.747" cy="2.747" r="2.747" transform="translate(333.824 79.829)" fill="#fff"/>
    <rect id="Rectangle_55" data-name="Rectangle 55" width="56.847" height="14.831" rx="7.416" transform="translate(293.73 172.93)" fill="#3f3d56"/>
    <rect id="Rectangle_56" data-name="Rectangle 56" width="49.436" height="9.87" rx="4.935" transform="translate(297.434 175.408)" opacity="0.1"/>
    <rect id="Rectangle_57" data-name="Rectangle 57" width="17.851" height="8.789" rx="4.395" transform="translate(327.782 175.949)" fill="#0080ff"/>
    <circle id="Ellipse_88" data-name="Ellipse 88" cx="2.747" cy="2.747" r="2.747" transform="translate(333.824 177.599)" fill="#fff"/>
    <rect id="Rectangle_58" data-name="Rectangle 58" width="56.847" height="14.831" rx="7.416" transform="translate(293.73 221.813)" fill="#3f3d56"/>
    <rect id="Rectangle_59" data-name="Rectangle 59" width="49.436" height="9.87" rx="4.935" transform="translate(297.434 224.295)" opacity="0.1"/>
    <rect id="Rectangle_60" data-name="Rectangle 60" width="17.851" height="8.789" rx="4.395" transform="translate(327.782 224.836)" fill="#0080ff"/>
    <circle id="Ellipse_89" data-name="Ellipse 89" cx="2.747" cy="2.747" r="2.747" transform="translate(333.824 226.481)" fill="#fff"/>
    <rect id="Rectangle_61" data-name="Rectangle 61" width="33.231" height="8.789" rx="4.395" transform="translate(121.258 65.822)" fill="#0080ff"/>
    <rect id="Rectangle_62" data-name="Rectangle 62" width="92.276" height="8.789" rx="4.395" transform="translate(121.258 78.179)" fill="#0080ff"/>
    <rect id="Rectangle_63" data-name="Rectangle 63" width="92.276" height="8.789" rx="4.395" transform="translate(121.258 90.54)" fill="#0080ff"/>
    <g id="Group_6" data-name="Group 6" transform="translate(121.258 114.705)" opacity="0.5">
      <rect id="Rectangle_64" data-name="Rectangle 64" width="33.231" height="8.789" rx="4.395" fill="#0080ff"/>
      <rect id="Rectangle_65" data-name="Rectangle 65" width="68.878" height="8.789" rx="4.395" transform="translate(0 12.361)" fill="#0080ff"/>
      <rect id="Rectangle_66" data-name="Rectangle 66" width="92.276" height="8.789" rx="4.395" transform="translate(0 24.718)" fill="#0080ff"/>
    </g>
    <rect id="Rectangle_67" data-name="Rectangle 67" width="33.231" height="8.789" rx="4.395" transform="translate(121.258 163.592)" fill="#0080ff"/>
    <rect id="Rectangle_68" data-name="Rectangle 68" width="92.276" height="8.789" rx="4.395" transform="translate(121.258 175.949)" fill="#0080ff"/>
    <rect id="Rectangle_69" data-name="Rectangle 69" width="57.33" height="8.789" rx="4.395" transform="translate(121.258 188.31)" fill="#0080ff"/>
    <rect id="Rectangle_70" data-name="Rectangle 70" width="33.231" height="8.789" rx="4.395" transform="translate(121.258 212.475)" fill="#0080ff"/>
    <rect id="Rectangle_71" data-name="Rectangle 71" width="92.276" height="8.789" rx="4.395" transform="translate(121.258 224.836)" fill="#0080ff"/>
    <rect id="Rectangle_72" data-name="Rectangle 72" width="74.24" height="8.789" rx="4.395" transform="translate(121.258 237.193)" fill="#0080ff"/>
    <line id="Line_1" data-name="Line 1" x2="268.914" transform="translate(107.235 107.231)" fill="none" stroke="#3f3d56" stroke-linecap="round" stroke-miterlimit="10" stroke-width="1" opacity="0.7"/>
    <line id="Line_2" data-name="Line 2" x2="268.914" transform="translate(107.235 156.931)" fill="none" stroke="#3f3d56" stroke-linecap="round" stroke-miterlimit="10" stroke-width="1" opacity="0.7"/>
    <line id="Line_3" data-name="Line 3" x2="268.914" transform="translate(107.235 206.63)" fill="none" stroke="#3f3d56" stroke-linecap="round" stroke-miterlimit="10" stroke-width="1" opacity="0.7"/>
    <line id="Line_4" data-name="Line 4" x2="268.914" transform="translate(107.235 257.567)" fill="none" stroke="#3f3d56" stroke-linecap="round" stroke-miterlimit="10" stroke-width="1" opacity="0.7"/>
    <ellipse id="Ellipse_90" data-name="Ellipse 90" cx="60.91" cy="4.331" rx="60.91" ry="4.331" transform="translate(266.983 279.221)" fill="#0080ff" opacity="0.1"/>
    <circle id="Ellipse_91" data-name="Ellipse 91" cx="8.921" cy="8.921" r="8.921" transform="translate(20.164 49.308)" fill="#0080ff" opacity="0.1"/>
    <circle id="Ellipse_92" data-name="Ellipse 92" cx="8.921" cy="8.921" r="8.921" transform="translate(57.346 0)" fill="#0080ff" opacity="0.1"/>
    <circle id="Ellipse_93" data-name="Ellipse 93" cx="14.951" cy="14.951" r="14.951" transform="translate(48.293 27.844)" fill="#0080ff" opacity="0.1"/>
    <rect id="Rectangle_73" data-name="Rectangle 73" width="56.847" height="14.831" rx="7.416" transform="translate(293.73 124.043)" fill="#3f3d56"/>
    <rect id="Rectangle_74" data-name="Rectangle 74" width="49.436" height="9.87" rx="4.935" transform="translate(297.434 126.526)" opacity="0.1"/>
    <path id="Path_547" data-name="Path 547" d="M733.345,548.947c.648-.095,1.3-.227,1.93-.375a6.032,6.032,0,0,1-.544,1.831,7.988,7.988,0,0,1-3,2.652.928.928,0,0,0-1.171-.078c-1.365.825-2.454,1.988-3.9,2.7-.507.247-1.035.445-1.53.722a8.249,8.249,0,0,0-2.887,2.982,2.049,2.049,0,0,0-.342,2.116,1.832,1.832,0,0,0,.586.524,3.333,3.333,0,0,0,2.009.6c.412-.037.825-.194,1.274-.264.565-.1,1.143-.049,1.712-.1a10,10,0,0,0,2.409-.623l2.833-.99a16.364,16.364,0,0,0,2.33-.957c.45-.243.874-.528,1.332-.751a10.729,10.729,0,0,1,1.592-.561l1.609-.47a1.568,1.568,0,0,1,.726-.095c.223.041.412.181.639.239a1.93,1.93,0,0,0,1.031-.1l1.864-.528a3.516,3.516,0,0,0,1.109-.462,3.38,3.38,0,0,0,1-2.862,21.687,21.687,0,0,0-.536-4.735,1.472,1.472,0,0,0-.606.458,8.821,8.821,0,0,0-.615-.771,9.2,9.2,0,0,1-1.86-3.436,6.047,6.047,0,0,0,1.65-1.864c-.986-3.757-2-7.572-4-10.889-.656-1.081-1.406-2.1-2.062-3.159-1.951-3.093-2.351-7.012-4.582-9.9a1.716,1.716,0,0,1,0-2.013c.256-.338.668-.656.59-1.076-.058-.3-.371-.577-.252-.858.058-.136.2-.21.305-.309.379-.355.33-.953.367-1.472a7.167,7.167,0,0,1,1.613-3.531,2.17,2.17,0,0,1,.594-.643c.2-.124.441-.181.643-.305.709-.45.66-1.493,1-2.268.445-1.023,1.567-1.538,2.3-2.367.936-1.056,1.176-2.524,2.161-3.444a2.519,2.519,0,0,1,.326-.264,16.6,16.6,0,0,0-.582,4.8c-.095,5.58,1.291,11.355.643,16.91-.511,4.4,2.174,8.781,5.98,10.979a28.589,28.589,0,0,0,4.656,1.976c2.384.854,4.76,1.732,7.1,2.714q2.475,1.039,4.883,2.231a60.762,60.762,0,0,1,5.774,3.221,22.352,22.352,0,0,1,6.22,5.164,4.924,4.924,0,0,0,2.747-1.01c.627.495,1.386.87,1.976,1.419a5.963,5.963,0,0,1,1.567,3.077h-.247c.029.549.054,1.1.082,1.65a.7.7,0,0,1-.062.412.748.748,0,0,1-.223.2l-1.27.862c-.924.623-1.943,1.411-1.992,2.528a1.287,1.287,0,0,0,.276.9,1.947,1.947,0,0,0,1.13.511,19.915,19.915,0,0,0,6.715.619,4.416,4.416,0,0,0,2.858-1.32,5.661,5.661,0,0,0,1-2.739c.276-1.65.507-3.337.689-5.011a11.081,11.081,0,0,1,.685-3.328.412.412,0,0,1,.177-.223c.095-.041.206,0,.305-.041s.165-.194.2-.318a19.68,19.68,0,0,0,.59-4.982,3.358,3.358,0,0,0-.194-1.283,2.59,2.59,0,0,0-1.765-1.361,14.055,14.055,0,0,0-2.281-.272,11.325,11.325,0,0,1-1.893-.346,1.732,1.732,0,0,0-.788-.1.553.553,0,0,0-.478.549.705.705,0,0,0,.1.268l-.643-.128c-.52-.095-1.237-.322-2.017-.511a3.605,3.605,0,0,1,.025-.412.779.779,0,0,0-.437-.709l-10.9-5.824-2.037-1.089c-4.463-2.388-9.074-4.595-13.549-6.983-.3.091-.544-.252-.631-.557s-.148-.668-.433-.8c-.14-.066-.326-.062-.412-.181a.491.491,0,0,1-.078-.367c.144-2.174,1.7-4.178,1.39-6.331a8.008,8.008,0,0,1-.412-2.73,12.921,12.921,0,0,1,.825-1.724c.536-1.328,0-2.924.586-4.223a9.777,9.777,0,0,0,.788-2.689,18.475,18.475,0,0,1,1.65-5.337,9.633,9.633,0,0,1,1.534-2.339c.326-.355.693-.672,1.006-1.039a8.688,8.688,0,0,0,1.567-4.124,19.727,19.727,0,0,0,.214-8.01,11.454,11.454,0,0,1-.507-2.693c0-1.1.441-2.355-.091-3.234a2.846,2.846,0,0,0,1.027-1.761,2.277,2.277,0,0,1,.144-.73,2.12,2.12,0,0,1,.689-.619,2.85,2.85,0,0,0,1.064-2.834c.565.256,1.159-.318,1.427-.883s.47-1.237,1.043-1.493a8.6,8.6,0,0,1,1.237-.173c.656-.169,1.056-.825,1.518-1.307a11.7,11.7,0,0,1,3.506-2.161c3.654-1.86,6.632-4.8,9.548-7.7a32.33,32.33,0,0,0,4.124-4.644c.326-.483.623-.982.9-1.493l.074-.037.025.091c.045.181.1.363.153.54.132.412.28.854.412,1.274a9.557,9.557,0,0,0,1.835,3.493,4.323,4.323,0,0,0,.94.73,6.311,6.311,0,0,0,2.421.726c.322.041.648.066.973.083s.652.029.973.037l6.673.177c-2.293-3.324-2.475-7.647-2.322-11.693.384-10.394,2.409-20.882.528-31.111a7.975,7.975,0,0,0-1.283-3.469,7.124,7.124,0,0,0-4.2-2.293,25.22,25.22,0,0,1-4.71-1.208,19.856,19.856,0,0,0-3.712-1.769,8.174,8.174,0,0,0-2.97.049q-1.806.268-3.592.635l-.289.062h.012l-.2.045h-.054l-.177.041h-.066l-.165.045-.074.021-.153.049-.087.029-.14.045-.091.037-.132.049-.1.041-.12.054-.1.049-.111.054-.1.058-.1.058-.1.066-.095.062-.1.07-.083.066-.095.083-.078.07a.976.976,0,0,0-.091.095l-.07.07a1.249,1.249,0,0,0-.091.115c0,.021-.037.041-.054.066s-.074.107-.111.169v.025a2.511,2.511,0,0,0-.227.491c-.029.087-.058.173-.078.26a3.925,3.925,0,0,0-.091.536,1.248,1.248,0,0,1-.021.276v.549a8.108,8.108,0,0,0,.1.924,10.051,10.051,0,0,0-.479,17.005,4.5,4.5,0,0,1,.033.491v.107a13.616,13.616,0,0,1-.181,1.741,24.2,24.2,0,0,0-4.949-.441c-.99,0-1.988.091-2.986.169a45.025,45.025,0,0,1-2.986-4.042l-2.2-3.229a30.777,30.777,0,0,1-2.062-3.3c-.54-1.048-.961-2.161-1.563-3.176-1.237-2.091-3.258-3.869-3.51-6.29l-.581.12c-.318-.52-.718-1.068-.866-1.369a27.039,27.039,0,0,1-1.831-5.362,8.24,8.24,0,0,0-.878-2.78,6.264,6.264,0,0,0-1.283-1.361,8.484,8.484,0,0,0-2.747-1.732,3.551,3.551,0,0,0-2.809.165,4.113,4.113,0,0,0-.412-.165,3.4,3.4,0,0,0-3.118.363,4.192,4.192,0,0,0-1.369,2.887,7.127,7.127,0,0,0,.734,4.38c.825,1.477,2.3,2.475,3.522,3.646a14.263,14.263,0,0,1,2.215,2.755,30.17,30.17,0,0,1-.169,6.686c-.157.949-.412,1.881-.487,2.838-.3,3.456,1.5,6.913.854,10.311a2.516,2.516,0,0,0,1.167,2.668,12.867,12.867,0,0,0,3.019.825c1.992.511,3.712,1.786,5.725,2.26.928.223,1.893.264,2.817.511l.144.045a6.711,6.711,0,0,0-1.481,2.813c-.412,1.732-.025,3.584-.437,5.316a11.854,11.854,0,0,1-2.025,3.881q-2.417,3.5-4.842,7.012a42.938,42.938,0,0,1-3.568,4.689c-2.223,2.429-6.059,4.355-7.189,7.276-.025-.07-.058-.14-.083-.21-1.6,1.175-2.2,3.366-3.473,4.887-.623.738-1.39,1.336-2.062,2.021a23.322,23.322,0,0,0-2.281,2.833,50.3,50.3,0,0,0-5.164,8.224c-.709,1.534-1.258,3.13-1.823,4.718-2.219,6.257-5.84,12.192-7.346,18.663-.367,1.58-1.328,3.007-1.472,4.624a8.942,8.942,0,0,0,1.444,4.9c1.237,2.326,2.615,4.586,3.712,6.979.648,1.394,1.208,2.833,1.93,4.195.788,1.485,1.753,2.862,2.578,4.327A54.249,54.249,0,0,1,733.345,548.947Zm27.287-118.186-.2-.1a6.834,6.834,0,0,1-2-1.324c-1.778-1.9-2.541-4.755-3.1-7.309-.066-.305-.124-.606-.177-.911a43.864,43.864,0,0,1,5.473,9.651Z" transform="translate(-434.253 -276.321)" fill="url(#linear-gradient)"/>
    <path id="Path_548" data-name="Path 548" d="M786.163,406.779a8.1,8.1,0,0,0-.874-2.759A6.252,6.252,0,0,0,784,402.667a8.554,8.554,0,0,0-2.755-1.72,3.44,3.44,0,0,0-3.118.359,4.163,4.163,0,0,0-1.373,2.887,7.04,7.04,0,0,0,.734,4.351c.845,1.468,2.306,2.45,3.531,3.621a14.185,14.185,0,0,1,2.3,2.887,8.337,8.337,0,0,0,1.048,1.534,2,2,0,0,0,1.65.664,2.887,2.887,0,0,0,1.349-.8c.5-.441,1.856-1.237,1.9-1.926.033-.565-1.023-1.844-1.283-2.376a26.979,26.979,0,0,1-1.819-5.374Z" transform="translate(-467.888 -277.107)" fill="#fbbebe"/>
    <path id="Path_549" data-name="Path 549" d="M786.163,406.779a8.1,8.1,0,0,0-.874-2.759A6.252,6.252,0,0,0,784,402.667a8.554,8.554,0,0,0-2.755-1.72,3.44,3.44,0,0,0-3.118.359,4.163,4.163,0,0,0-1.373,2.887,7.04,7.04,0,0,0,.734,4.351c.845,1.468,2.306,2.45,3.531,3.621a14.185,14.185,0,0,1,2.3,2.887,8.337,8.337,0,0,0,1.048,1.534,2,2,0,0,0,1.65.664,2.887,2.887,0,0,0,1.349-.8c.5-.441,1.856-1.237,1.9-1.926.033-.565-1.023-1.844-1.283-2.376a26.979,26.979,0,0,1-1.819-5.374Z" transform="translate(-467.888 -277.107)" opacity="0.1"/>
    <path id="Path_550" data-name="Path 550" d="M823.041,453.339a24.285,24.285,0,0,0-6.673-.825c-3.757.054-7.626.965-11.206-.19a19.548,19.548,0,0,1-2.681-1.142,6.838,6.838,0,0,1-2-1.316c-1.782-1.885-2.549-4.727-3.1-7.259a48.443,48.443,0,0,1-.846-7.725,5.913,5.913,0,0,1-2.928.771,2.152,2.152,0,0,1-2.062-1.893,31.33,31.33,0,0,1-.136,7.2c-.157.94-.412,1.868-.483,2.817-.305,3.436,1.5,6.867.854,10.253a2.475,2.475,0,0,0,1.167,2.648,13.1,13.1,0,0,0,3.023.825c1.992.507,3.712,1.773,5.733,2.248.928.219,1.9.26,2.821.507,1.316.351,2.516,1.105,3.86,1.34,1.006.181,2.062.058,3.064.144.887.074,1.753.305,2.644.33a7.617,7.617,0,0,0,5.675-2.809A24.61,24.61,0,0,0,823.041,453.339Z" transform="translate(-476.238 -296.515)" fill="#f86d70"/>
    <path id="Path_551" data-name="Path 551" d="M823.041,453.339a24.285,24.285,0,0,0-6.673-.825c-3.757.054-7.626.965-11.206-.19a19.548,19.548,0,0,1-2.681-1.142,6.838,6.838,0,0,1-2-1.316c-1.782-1.885-2.549-4.727-3.1-7.259a48.443,48.443,0,0,1-.846-7.725,5.913,5.913,0,0,1-2.928.771,2.152,2.152,0,0,1-2.062-1.893,31.33,31.33,0,0,1-.136,7.2c-.157.94-.412,1.868-.483,2.817-.305,3.436,1.5,6.867.854,10.253a2.475,2.475,0,0,0,1.167,2.648,13.1,13.1,0,0,0,3.023.825c1.992.507,3.712,1.773,5.733,2.248.928.219,1.9.26,2.821.507,1.316.351,2.516,1.105,3.86,1.34,1.006.181,2.062.058,3.064.144.887.074,1.753.305,2.644.33a7.617,7.617,0,0,0,5.675-2.809A24.61,24.61,0,0,0,823.041,453.339Z" transform="translate(-476.238 -296.515)" opacity="0.1"/>
    <path id="Path_552" data-name="Path 552" d="M872.3,737.521a5.644,5.644,0,0,1,1.926.6,4.537,4.537,0,0,1,1.675,2.26,19.616,19.616,0,0,1,1.126,7.057,15.193,15.193,0,0,1-.726,5.721,3.643,3.643,0,0,1-.953,1.5,3.436,3.436,0,0,1-1.312.635,3.515,3.515,0,0,1-3.077-.379,4.9,4.9,0,0,1-1.373-3.209,7.431,7.431,0,0,0-1.827-4.364c-.874-.825-2.128-1.237-2.763-2.235-.759-1.2-.359-2.768.124-4.1.412-1.159,1.035-3.506,2.248-4.1S871.043,737.294,872.3,737.521Z" transform="translate(-519.534 -474.518)" fill="#fbbebe"/>
    <path id="Path_553" data-name="Path 553" d="M756.013,749.232a9.134,9.134,0,0,0,1.889,3.51c.536.619,1.208,1.369.928,2.136a1.987,1.987,0,0,1-.507.681c-3.984,3.893-9.556,5.774-15.083,6.484a.532.532,0,0,1-.268,0c-.161-.07-.2-.276-.219-.454a5.574,5.574,0,0,1,0-1.736,5.223,5.223,0,0,1,2.611-3.048,8.112,8.112,0,0,0,3.069-2.681c.8-1.51.466-3.477,1.423-4.892a5.1,5.1,0,0,1,3.592-1.856c.474-.074,1.485-.594,1.889-.355S755.873,748.757,756.013,749.232Z" transform="translate(-447.917 -480.537)" fill="#fbbebe"/>
    <path id="Path_554" data-name="Path 554" d="M874.319,737.542A.548.548,0,0,1,874.8,737a1.793,1.793,0,0,1,.788.1,10.923,10.923,0,0,0,1.893.351,14.056,14.056,0,0,1,2.285.268,2.586,2.586,0,0,1,1.769,1.349,3.347,3.347,0,0,1,.194,1.279,19.409,19.409,0,0,1-.59,4.949c-.033.124-.082.268-.2.314s-.206,0-.3.045a.372.372,0,0,0-.177.223,10.9,10.9,0,0,0-.689,3.3c-.181,1.65-.412,3.324-.689,4.974a5.465,5.465,0,0,1-1,2.722,4.426,4.426,0,0,1-2.862,1.312,20.173,20.173,0,0,1-6.723-.615,1.967,1.967,0,0,1-1.134-.507,1.274,1.274,0,0,1-.276-.9c.049-1.109,1.072-1.893,1.992-2.512l1.274-.854a.66.66,0,0,0,.223-.2.689.689,0,0,0,.062-.412l-.083-1.65a4.673,4.673,0,0,1,4.071,2.532c.173.351.342.759.705.9a.932.932,0,0,0,1.109-.672,2.858,2.858,0,0,0-.037-1.431c-.747-3.988-.569-8.088-1.023-12.118a2.734,2.734,0,0,0-.412-1.279C874.772,738.181,874.364,737.913,874.319,737.542Z" transform="translate(-521.007 -474.679)" fill="#f86d70"/>
    <rect id="Rectangle_75" data-name="Rectangle 75" width="17.851" height="8.789" rx="4.395" transform="translate(316.522 135.855) rotate(180)" fill="#0080ff"/>
    <circle id="Ellipse_94" data-name="Ellipse 94" cx="2.747" cy="2.747" r="2.747" transform="translate(304.986 128.712)" fill="#fff"/>
    <path id="Path_555" data-name="Path 555" d="M735.342,767.541c-.186.309-.478.549-.652.866a.742.742,0,0,0,.14.969.957.957,0,0,0,.59.058,19.843,19.843,0,0,0,10.724-4.859,7.511,7.511,0,0,0,1.316-1.439c.351-.532.648-1.184,1.237-1.406a21.415,21.415,0,0,1,.553,4.722,3.363,3.363,0,0,1-1,2.846,3.56,3.56,0,0,1-1.114.454l-1.864.528a1.984,1.984,0,0,1-1.035.1c-.219-.058-.412-.2-.639-.239a1.568,1.568,0,0,0-.726.095l-1.613.47a10.249,10.249,0,0,0-1.592.557c-.462.219-.887.5-1.336.742a15.994,15.994,0,0,1-2.334.949l-2.833.986a10.271,10.271,0,0,1-2.413.619c-.569.049-1.151,0-1.716.095a11.656,11.656,0,0,1-1.279.264,3.345,3.345,0,0,1-2.009-.594,1.867,1.867,0,0,1-.586-.52c-.412-.631-.054-1.464.342-2.1a8.316,8.316,0,0,1,2.887-2.961c.495-.272,1.027-.47,1.534-.718,1.448-.7,2.541-1.872,3.906-2.673C735.12,764.592,735.949,766.543,735.342,767.541Z" transform="translate(-437.513 -489.216)" fill="#f86d70"/>
    <path id="Path_556" data-name="Path 556" d="M846.69,479.728a11.783,11.783,0,0,0,5.015,1.951,20.418,20.418,0,0,0,2.838.153,72.121,72.121,0,0,0,11.808-.986c-1.551-1.712-3.122-3.543-3.712-5.774a9.533,9.533,0,0,1-.181-3.617,27.229,27.229,0,0,1,1.105-4.537,32.027,32.027,0,0,1-4.991-.128c-.944-.1-3.262-.957-4.083-.305s-.19,2.751-.177,3.737a.952.952,0,0,1,0,.107,11.933,11.933,0,0,1-.953,4.364A8.225,8.225,0,0,1,846.69,479.728Z" transform="translate(-509.026 -315.6)" fill="#fbbebe"/>
    <path id="Path_557" data-name="Path 557" d="M864.833,470.177a9.924,9.924,0,0,0,8.146,1.237,27.228,27.228,0,0,1,1.105-4.537,32.023,32.023,0,0,1-4.991-.128c-.944-.1-3.262-.957-4.083-.305S864.821,469.192,864.833,470.177Z" transform="translate(-519.543 -315.577)" opacity="0.1"/>
    <circle id="Ellipse_95" data-name="Ellipse 95" cx="9.944" cy="9.944" r="9.944" transform="translate(340.79 135.872)" fill="#fbbebe"/>
    <path id="Path_558" data-name="Path 558" d="M776.09,524.848a4.632,4.632,0,0,0,2.244,3.988,8.947,8.947,0,0,0,2.433.858,47.782,47.782,0,0,0,13.879,1.712,7.626,7.626,0,0,0,2.945-.619,3.159,3.159,0,0,0,1.819-2.273,2.136,2.136,0,0,1,.14-.722,2.108,2.108,0,0,1,.689-.615,2.821,2.821,0,0,0,1.068-2.813c.565.256,1.159-.318,1.427-.878s.474-1.237,1.044-1.481a8.6,8.6,0,0,1,1.237-.173c.656-.169,1.056-.825,1.518-1.3a11.9,11.9,0,0,1,3.51-2.149c3.663-1.844,6.644-4.768,9.569-7.643a32.071,32.071,0,0,0,4.124-4.611,16.97,16.97,0,0,0,.907-1.485,41.984,41.984,0,0,0,2.289-5.242,6.045,6.045,0,0,0,.594-3,1.36,1.36,0,0,0-.054-.276,5.773,5.773,0,0,0-.9-1.823,7.631,7.631,0,0,0-4.075-3.349c-1.741-.462-3.473.095-5.242.47a13.132,13.132,0,0,1-1.778.272,16.7,16.7,0,0,1-5.535-.87l-1.972-.544c-.986-.272-1.481-1.464-2.475-1.675a3.35,3.35,0,0,0-1.34.07,18.474,18.474,0,0,0-5.857,1.914,8.8,8.8,0,0,0-1.138.775,7.205,7.205,0,0,0-2.648,3.906c-.412,1.72-.025,3.559-.437,5.279a11.756,11.756,0,0,1-2.025,3.852l-4.859,6.958a42.959,42.959,0,0,1-3.572,4.652C781,518.855,776.16,520.992,776.09,524.848Z" transform="translate(-467.545 -328.719)" fill="#f86d70"/>
    <path id="Path_559" data-name="Path 559" d="M794.013,406.779a8.093,8.093,0,0,0-.874-2.759,6.254,6.254,0,0,0-1.287-1.353,8.555,8.555,0,0,0-2.755-1.72,3.44,3.44,0,0,0-3.118.359,4.164,4.164,0,0,0-1.373,2.887,7.041,7.041,0,0,0,.734,4.351c.825,1.468,2.306,2.45,3.531,3.621a14.181,14.181,0,0,1,2.3,2.887,8.332,8.332,0,0,0,1.048,1.534,2,2,0,0,0,1.65.664,2.888,2.888,0,0,0,1.349-.8c.5-.441,1.856-1.237,1.9-1.926.033-.565-1.023-1.844-1.283-2.376a26.976,26.976,0,0,1-1.819-5.374Z" transform="translate(-472.5 -277.107)" fill="#fbbebe"/>
    <path id="Path_560" data-name="Path 560" d="M720.727,622.682c1.237,2.31,2.615,4.537,3.733,6.929.648,1.39,1.208,2.817,1.93,4.17.788,1.472,1.757,2.842,2.582,4.294a49.836,49.836,0,0,1,4.3,11.891,23.671,23.671,0,0,0,8.463-2.978,5.346,5.346,0,0,0,.507-.326,5.99,5.99,0,0,0,1.708-1.885c-.986-3.712-2-7.519-4-10.814-.656-1.072-1.406-2.062-2.062-3.139-1.951-3.073-2.355-6.946-4.586-9.82a1.682,1.682,0,0,1,0-2c.256-.334.668-.652.59-1.068-.058-.3-.371-.573-.252-.854.058-.136.2-.21.305-.309.379-.346.33-.944.367-1.456a7.136,7.136,0,0,1,1.617-3.51,2.2,2.2,0,0,1,.594-.639c.2-.124.441-.182.643-.305.709-.441.66-1.481,1-2.252.445-1.015,1.567-1.53,2.306-2.351.936-1.048,1.171-2.5,2.161-3.419a2.933,2.933,0,0,1,.326-.264,16.376,16.376,0,0,0-.581,4.788c-.095,5.543,1.291,11.276.643,16.782-.511,4.364,2.178,8.719,5.989,10.905a28.993,28.993,0,0,0,4.665,1.963c2.384.846,4.768,1.716,7.106,2.693,1.65.685,3.3,1.427,4.892,2.215a60.214,60.214,0,0,1,5.774,3.2,22.274,22.274,0,0,1,6.228,5.127,5.587,5.587,0,0,0,4.025-2.215,15.531,15.531,0,0,0,2.2-4.17,11.585,11.585,0,0,0,1.048-3.931.784.784,0,0,0-.437-.705l-10.913-5.774-2.062-1.081c-4.467-2.372-9.074-4.566-13.565-6.933-.3.087-.549-.256-.635-.553s-.148-.668-.433-.8c-.144-.066-.326-.066-.412-.182a.5.5,0,0,1-.074-.363c.144-2.161,1.7-4.149,1.39-6.29a7.907,7.907,0,0,1-.412-2.71,12.588,12.588,0,0,1,.825-1.716c.532-1.32,0-2.887.586-4.195a9.624,9.624,0,0,0,.788-2.673,18.1,18.1,0,0,1,1.67-5.3,9.561,9.561,0,0,1,1.534-2.326c.33-.351.7-.668,1.006-1.031a8.609,8.609,0,0,0,1.571-4.075,19.473,19.473,0,0,0,.215-7.956,11.317,11.317,0,0,1-.507-2.677c0-1.2.54-2.607-.293-3.477a2.723,2.723,0,0,0-1.237-.627,37.292,37.292,0,0,0-5.919-1.093l-9.1-1.184a8.364,8.364,0,0,1-3.031-.788,6.045,6.045,0,0,1-2.557-3.267c-1.6,1.167-2.2,3.341-3.477,4.85-.623.738-1.39,1.332-2.062,2.009a22.737,22.737,0,0,0-2.285,2.817,50.037,50.037,0,0,0-5.176,8.166c-.705,1.522-1.237,3.11-1.823,4.685-2.223,6.216-5.849,12.113-7.354,18.535-.371,1.571-1.332,2.986-1.477,4.595A8.678,8.678,0,0,0,720.727,622.682Z" transform="translate(-434.156 -377.839)" fill="#434175"/>
    <path id="Path_561" data-name="Path 561" d="M836.606,567.294a2.826,2.826,0,0,1,.334,1.345c-.2-1.006-1.588-1.563-1.675-2.557-.041-.458.041-.437.326-.194C836.025,566.247,836.21,566.9,836.606,567.294Z" transform="translate(-502.308 -374.047)" opacity="0.1"/>
    <path id="Path_562" data-name="Path 562" d="M827.033,576.481a2.124,2.124,0,0,1,.631.932,2.372,2.372,0,0,1,.124,1.621c-.2-.095-.272-.342-.334-.561a3.866,3.866,0,0,0-.412-.961c-.165-.26-.92-.879-.911-1.163C826.117,575.92,826.831,576.328,827.033,576.481Z" transform="translate(-496.946 -380.182)" opacity="0.1"/>
    <path id="Path_563" data-name="Path 563" d="M827.14,491.313a10.406,10.406,0,0,0,2.1,1.394c1.971,1,4.153,1.522,6.137,2.475a29.774,29.774,0,0,1,2.846,1.65c1.967,1.237,3.931,2.475,5.894,3.733a6.5,6.5,0,0,1,1.3.986c.709.759.705,2.062,1.353,2.887a3.877,3.877,0,0,0,2.858,1.32,9.28,9.28,0,0,0,3.188-.536,15.764,15.764,0,0,0,1.823-.664,8.441,8.441,0,0,0,1.749-1,5.028,5.028,0,0,0,2.062-3.254,6.426,6.426,0,0,0-.351-2.656,10.345,10.345,0,0,0-.627-1.613,6.253,6.253,0,0,0-.5-.845c-1.353-1.918-3.737-2.821-6.042-3.271-1.217-.235-2.454-.379-3.675-.586a13.132,13.132,0,0,1-1.778.272,16.7,16.7,0,0,1-5.535-.87l-1.971-.544c-.986-.272-1.481-1.464-2.475-1.674a3.349,3.349,0,0,0-1.34.07,18.474,18.474,0,0,0-5.857,1.914A8.789,8.789,0,0,0,827.14,491.313Z" transform="translate(-497.539 -328.666)" opacity="0.1"/>
    <path id="Path_564" data-name="Path 564" d="M805.413,431.36c.252,2.4,2.281,4.17,3.518,6.244.6,1.01,1.023,2.116,1.563,3.159a30.933,30.933,0,0,0,2.062,3.3l2.207,3.2a33.165,33.165,0,0,0,4.269,5.362c2.887.491,5.321,2.64,8.063,3.683,2.2.825,4.591.949,6.9,1.4s4.689,1.349,6.042,3.271a8.589,8.589,0,0,1,1.13,2.475,6.408,6.408,0,0,1,.351,2.652,5.028,5.028,0,0,1-2.062,3.258,11.428,11.428,0,0,1-3.568,1.65,9.378,9.378,0,0,1-3.188.536,3.893,3.893,0,0,1-2.862-1.32c-.643-.825-.639-2.141-1.349-2.887a6.5,6.5,0,0,0-1.3-.986l-5.894-3.712a29.781,29.781,0,0,0-2.846-1.65c-1.984-.969-4.166-1.493-6.137-2.475s-3.807-2.644-4.195-4.817c-1.2-6.677-5.824-12.307-9.775-17.822.128-.025.091-.322.136-.445a5.775,5.775,0,0,1,2.887-2.92A14.58,14.58,0,0,1,805.413,431.36Z" transform="translate(-480.618 -295.105)" fill="#f86d70"/>
    <path id="Path_565" data-name="Path 565" d="M865.973,424.909a3.659,3.659,0,0,1,.412-2.1c.656-1.089,2.025-1.472,3.271-1.728s2.392-.454,3.6-.627a8.29,8.29,0,0,1,2.974-.054,20.079,20.079,0,0,1,3.712,1.757,26.383,26.383,0,0,0,4.718,1.2,7.249,7.249,0,0,1,4.207,2.277,7.893,7.893,0,0,1,1.283,3.444c1.885,10.159-.144,20.577-.528,30.9-.153,4.017.029,8.311,2.326,11.614l-6.686-.177c-1.712-.045-3.551-.136-4.9-1.192a8.049,8.049,0,0,1-2.252-3.84,11.961,11.961,0,0,1-.858-3.444c-.1-2.425,1.274-4.8.825-7.193a8.108,8.108,0,0,0-3.019-4.393A27.9,27.9,0,0,1,871,447.754c-2-2.536-2.384-6-2.136-9.218a34.874,34.874,0,0,0,.326-5.745,7.23,7.23,0,0,0-1.514-4.025A5.675,5.675,0,0,1,865.973,424.909Z" transform="translate(-520.345 -288.604)" fill="#434175"/>
    <path id="Path_566" data-name="Path 566" d="M866.382,423.962a4.593,4.593,0,0,1,3.2-1.712A3.163,3.163,0,0,0,868,423.487a3.712,3.712,0,0,0-.412,2.1,5.589,5.589,0,0,0,1.712,3.856,7.193,7.193,0,0,1,1.518,4.025,35.354,35.354,0,0,1-.326,5.745c-.252,3.217.132,6.682,2.136,9.218a27.085,27.085,0,0,0,4.054,3.609,8.036,8.036,0,0,1,3.019,4.393c.445,2.384-.932,4.768-.825,7.193a11.756,11.756,0,0,0,.854,3.44,8.109,8.109,0,0,0,2.252,3.844c1.345,1.056,3.188,1.147,4.9,1.192l4.735.124c.1.173.215.346.33.516l-6.686-.177c-1.712-.045-3.551-.136-4.9-1.192a8.049,8.049,0,0,1-2.252-3.84,11.963,11.963,0,0,1-.858-3.444c-.1-2.425,1.275-4.8.825-7.193a8.108,8.108,0,0,0-3.019-4.393,27.9,27.9,0,0,1-4.054-3.609c-2-2.537-2.384-6-2.136-9.218a34.861,34.861,0,0,0,.326-5.745,7.23,7.23,0,0,0-1.514-4.025,5.611,5.611,0,0,1-1.716-3.856,3.658,3.658,0,0,1,.417-2.087Z" transform="translate(-520.341 -289.752)" opacity="0.1"/>
    <path id="Path_567" data-name="Path 567" d="M745.22,651.9,757.5,681.827a5.987,5.987,0,0,0,1.708-1.885c-.986-3.712-2-7.519-4-10.814-.656-1.072-1.406-2.062-2.062-3.139-1.951-3.073-2.355-6.946-4.586-9.82a1.683,1.683,0,0,1,0-2c.256-.334.668-.652.59-1.068-.058-.3-.371-.573-.252-.854.058-.136.2-.21.305-.309.379-.346.33-.944.367-1.456a7.137,7.137,0,0,1,1.617-3.51,2.2,2.2,0,0,1,.594-.639c.2-.124.441-.182.643-.305.709-.441.66-1.481,1-2.252.445-1.015,1.567-1.53,2.306-2.351.936-1.048,1.171-2.5,2.161-3.419l.087-.214-.928-5.774Z" transform="translate(-449.407 -413.004)" opacity="0.1"/>
    <ellipse id="Ellipse_96" data-name="Ellipse 96" cx="14.002" cy="2.693" rx="14.002" ry="2.693" transform="translate(388.976 269.252)" fill="#0080ff"/>
    <ellipse id="Ellipse_97" data-name="Ellipse 97" cx="1.629" cy="2.132" rx="1.629" ry="2.132" transform="translate(401.584 268.666)" fill="#3f3d56"/>
    <ellipse id="Ellipse_98" data-name="Ellipse 98" cx="1.629" cy="2.132" rx="1.629" ry="2.132" transform="translate(401.584 266.06)" fill="#3f3d56"/>
    <ellipse id="Ellipse_99" data-name="Ellipse 99" cx="1.629" cy="2.132" rx="1.629" ry="2.132" transform="translate(401.584 263.449)" fill="#3f3d56"/>
    <ellipse id="Ellipse_100" data-name="Ellipse 100" cx="1.629" cy="2.132" rx="1.629" ry="2.132" transform="translate(401.584 260.842)" fill="#3f3d56"/>
    <ellipse id="Ellipse_101" data-name="Ellipse 101" cx="1.629" cy="2.132" rx="1.629" ry="2.132" transform="translate(401.584 258.231)" fill="#3f3d56"/>
    <ellipse id="Ellipse_102" data-name="Ellipse 102" cx="1.629" cy="2.132" rx="1.629" ry="2.132" transform="translate(401.584 255.625)" fill="#3f3d56"/>
    <ellipse id="Ellipse_103" data-name="Ellipse 103" cx="1.629" cy="2.132" rx="1.629" ry="2.132" transform="translate(401.584 253.018)" fill="#3f3d56"/>
    <path id="Path_568" data-name="Path 568" d="M988.44,658.306a7.743,7.743,0,0,1-.606-.895l4.281-.705-4.632.037a7.836,7.836,0,0,1-.148-6.187l6.216,3.221-5.733-4.211a7.812,7.812,0,1,1,12.9,8.74,7.57,7.57,0,0,1,.891,1.423l-5.56,2.887,5.931-1.988a7.867,7.867,0,0,1,.412,2.5,7.775,7.775,0,0,1-1.675,4.83,7.808,7.808,0,1,1-12.274,0,7.812,7.812,0,0,1,0-9.655Z" transform="translate(-591.331 -421.006)" fill="#0080ff"/>
    <path id="Path_569" data-name="Path 569" d="M1002.389,687.887a7.775,7.775,0,0,1-1.674,4.83,7.808,7.808,0,1,1-12.274,0C987.393,691.388,1002.389,687.012,1002.389,687.887Z" transform="translate(-591.331 -445.761)" opacity="0.1"/>
    <ellipse id="Ellipse_104" data-name="Ellipse 104" cx="9.416" cy="1.811" rx="9.416" ry="1.811" transform="translate(420.833 240.224)" fill="#0080ff"/>
    <ellipse id="Ellipse_105" data-name="Ellipse 105" cx="1.097" cy="1.435" rx="1.097" ry="1.435" transform="translate(429.313 239.832)" fill="#3f3d56"/>
    <ellipse id="Ellipse_106" data-name="Ellipse 106" cx="1.097" cy="1.435" rx="1.097" ry="1.435" transform="translate(429.313 238.079)" fill="#3f3d56"/>
    <ellipse id="Ellipse_107" data-name="Ellipse 107" cx="1.097" cy="1.435" rx="1.097" ry="1.435" transform="translate(429.313 236.322)" fill="#3f3d56"/>
    <ellipse id="Ellipse_108" data-name="Ellipse 108" cx="1.097" cy="1.435" rx="1.097" ry="1.435" transform="translate(429.313 234.569)" fill="#3f3d56"/>
    <ellipse id="Ellipse_109" data-name="Ellipse 109" cx="1.097" cy="1.435" rx="1.097" ry="1.435" transform="translate(429.313 232.817)" fill="#3f3d56"/>
    <ellipse id="Ellipse_110" data-name="Ellipse 110" cx="1.097" cy="1.435" rx="1.097" ry="1.435" transform="translate(429.313 231.064)" fill="#3f3d56"/>
    <ellipse id="Ellipse_111" data-name="Ellipse 111" cx="1.097" cy="1.435" rx="1.097" ry="1.435" transform="translate(429.313 229.307)" fill="#3f3d56"/>
    <path id="Path_570" data-name="Path 570" d="M1059.994,619.2a4.537,4.537,0,0,1-.412-.6l2.887-.474-3.114.025a5.207,5.207,0,0,1-.483-2.194,5.273,5.273,0,0,1,.38-1.967l4.182,2.169-3.856-2.833a5.25,5.25,0,1,1,8.661,5.877,5.178,5.178,0,0,1,.6.957L1065.1,622.1l3.984-1.34a5.267,5.267,0,0,1-.845,4.949,5.255,5.255,0,1,1-8.249,0,5.242,5.242,0,0,1,0-6.492Z" transform="translate(-633.688 -400.455)" fill="#0080ff"/>
    <path id="Path_571" data-name="Path 571" d="M1069.381,639.12a5.246,5.246,0,0,1-1.122,3.246,5.255,5.255,0,1,1-8.249,0C1059.3,641.471,1069.381,638.53,1069.381,639.12Z" transform="translate(-633.7 -417.13)" opacity="0.1"/>
  </g>
</svg>
